<?xml version="1.0" standalone="no"?>
<!DOCTYPE svg PUBLIC "-//W3C//DTD SVG 20010904//EN"
 "http://www.w3.org/TR/2001/REC-SVG-20010904/DTD/svg10.dtd">
<svg version="1.0" xmlns="http://www.w3.org/2000/svg"
 width="1920.000000pt" height="1080.000000pt" viewBox="0 0 1920.000000 1080.000000"
 preserveAspectRatio="xMidYMid meet">

<g transform="translate(0.000000,1080.000000) scale(0.100000,-0.100000)"
fill="#000000" stroke="none">
<path d="M0 8591 c0 -1750 3 -2210 13 -2214 9 -4 9 -6 0 -6 -10 -1 -13 -658
-13 -3186 l0 -3185 9600 0 9600 0 0 5400 0 5400 -9600 0 -9600 0 0 -2209z
m9040 2094 c0 -1 -10 -10 -22 -21 -12 -10 -18 -13 -14 -6 5 8 1 12 -11 13 -16
0 -16 1 2 8 17 7 45 10 45 6z m-123 -22 c-18 -5 -42 -49 -38 -68 2 -5 -1 -7
-5 -2 -4 4 -16 0 -26 -10 -29 -26 -21 2 15 45 19 24 40 41 52 40 17 0 18 -1 2
-5z m-117 -108 c0 -8 -2 -15 -4 -15 -2 0 -6 7 -10 15 -3 8 -1 15 4 15 6 0 10
-7 10 -15z m-65 -15 c-11 -5 -29 -9 -40 -9 -17 -1 -17 1 -5 9 8 5 26 9 40 9
23 0 23 -1 5 -9z m-65 -40 c0 -8 -34 -24 -55 -25 -5 -1 -31 -12 -57 -24 -26
-13 -53 -21 -60 -18 -8 4 -6 6 5 6 9 1 17 6 17 11 0 6 7 10 15 10 8 0 15 5 15
10 0 6 8 10 18 10 9 0 31 8 47 19 29 17 55 18 55 1z m-200 -86 c0 -4 -18 -24
-40 -45 -46 -45 -55 -27 -11 20 26 28 51 40 51 25z m-3130 -217 c0 -2 -12 -14
-27 -28 -24 -22 -24 -13 0 19 8 11 27 17 27 9z m-70 -47 c0 -6 -12 -16 -27
-22 -32 -14 -84 -18 -77 -6 3 4 13 8 23 8 10 0 32 7 47 15 35 18 34 18 34 5z
m-140 -70 c0 -5 -5 -10 -11 -10 -5 0 -7 5 -4 10 3 6 8 10 11 10 2 0 4 -4 4
-10z m2220 -169 c0 -9 -41 -23 -49 -16 -3 4 28 20 47 24 1 1 2 -3 2 -8z m-63
-27 c-3 -3 -12 -4 -19 -1 -8 3 -5 6 6 6 11 1 17 -2 13 -5z m8618 -174 c3 -5 2
-10 -4 -10 -5 0 -13 5 -16 10 -3 6 -2 10 4 10 5 0 13 -4 16 -10z m-11478 -65
c8 -22 -6 -33 -17 -15 -13 20 -12 30 0 30 6 0 13 -7 17 -15z m77 -24 c4 -5 -3
-7 -14 -4 -23 6 -26 13 -6 13 8 0 17 -4 20 -9z m-91 -58 c-4 -28 -19 -51 -58
-89 -29 -28 -67 -59 -85 -67 -27 -14 -24 -9 22 37 30 29 61 55 71 59 9 3 22
26 29 52 15 54 29 60 21 8z m1682 17 c3 -5 1 -10 -4 -10 -6 0 -11 5 -11 10 0
6 2 10 4 10 3 0 8 -4 11 -10z m55 -46 c0 -8 -13 -20 -30 -25 -17 -6 -30 -18
-30 -27 0 -25 -85 -110 -117 -118 -15 -4 -34 -11 -40 -17 -7 -5 -13 -7 -13 -4
0 15 -60 -22 -89 -55 -18 -21 -38 -38 -43 -38 -6 0 -26 -14 -45 -31 -39 -34
-51 -33 -32 2 16 31 27 40 73 64 21 11 52 31 69 46 17 15 59 35 94 44 53 14
66 23 80 48 16 32 102 126 116 127 4 0 7 -7 7 -16z m-3996 -204 c10 -21 11
-30 3 -30 -7 0 -17 16 -23 35 -13 40 -2 37 20 -5z m3296 -69 c0 -13 -29 -35
-37 -28 -7 8 15 37 28 37 5 0 9 -4 9 -9z m-3280 -67 c0 -14 -4 -23 -9 -20 -5
3 -7 15 -4 26 7 28 13 25 13 -6z m3030 -48 c0 -3 -4 -8 -10 -11 -5 -3 -10 -1
-10 4 0 6 5 11 10 11 6 0 10 -2 10 -4z m409 -17 c-8 -5 -32 -8 -54 -8 l-40 1
45 12 c47 13 72 10 49 -5z m-109 -5 c0 -2 -7 -4 -15 -4 -8 0 -15 4 -15 10 0 5
7 7 15 4 8 -4 15 -8 15 -10z m-172 -24 l26 -21 -34 6 c-18 3 -37 8 -42 11 -4
3 -8 0 -8 -6 0 -7 -18 -10 -46 -9 -55 3 -70 19 -17 19 21 0 45 5 53 10 23 15
39 12 68 -10z m-3006 -115 c-6 -34 -19 -40 -27 -14 -5 14 -2 25 6 30 22 14 27
11 21 -16z m22 -101 c-3 -18 -1 -41 5 -53 13 -23 2 -28 -17 -9 -7 7 -12 38
-12 73 1 55 2 58 15 40 10 -12 13 -30 9 -51z m15316 27 c0 -4 12 -7 28 -5 27
4 27 4 2 -5 -14 -5 -45 -9 -70 -9 l-45 0 35 13 c43 16 50 17 50 6z m100 -1 c0
-5 -9 -10 -20 -10 -11 0 -20 5 -20 10 0 6 9 10 20 10 11 0 20 -4 20 -10z m537
-106 c-15 -8 -32 -12 -37 -9 -18 11 1 25 33 25 l32 -1 -28 -15z m83 6 c0 -5
-8 -10 -17 -10 -15 0 -16 2 -3 10 19 12 20 12 20 0z m-205 -40 c-39 -20 -75
-27 -61 -12 9 9 67 30 86 31 8 1 -3 -8 -25 -19z m-80 -30 c0 -25 -86 -58 -156
-61 -35 -2 -64 1 -64 5 0 10 104 48 137 49 15 1 33 8 40 15 16 16 43 11 43 -8z
m-15585 6 c0 -3 -4 -8 -10 -11 -5 -3 -10 -1 -10 4 0 6 5 11 10 11 6 0 10 -2
10 -4z m15275 -17 c11 -17 -13 -17 -30 1 -16 18 -16 18 4 13 12 -3 24 -9 26
-14z m70 -9 c3 -5 2 -10 -4 -10 -5 0 -13 5 -16 10 -3 6 -2 10 4 10 5 0 13 -4
16 -10z m-15500 -20 c3 -5 -1 -10 -9 -10 -9 0 -16 5 -16 10 0 6 4 10 9 10 6 0
13 -4 16 -10z m1115 -142 c0 -4 -11 -2 -25 4 -19 8 -31 8 -48 0 -12 -6 -48
-12 -79 -14 -44 -2 -54 0 -46 10 6 6 32 12 58 12 26 0 63 7 81 14 30 13 35 13
47 -1 6 -9 12 -20 12 -25z m13575 -147 c-5 -24 -9 -28 -19 -18 -11 10 -11 16
2 35 19 29 26 22 17 -17z m-25 -60 c0 -6 -4 -13 -10 -16 -5 -3 -10 1 -10 9 0
9 5 16 10 16 6 0 10 -4 10 -9z m-14125 -501 c4 -6 -7 -10 -27 -9 -31 1 -32 1
-8 9 14 4 26 8 27 9 1 1 5 -3 8 -9z m3695 6 c0 -3 -4 -8 -10 -11 -5 -3 -10 -1
-10 4 0 6 5 11 10 11 6 0 10 -2 10 -4z m12 -61 c4 -16 1 -24 -6 -22 -6 2 -12
16 -13 31 -2 33 13 26 19 -9z m-3647 0 c16 -13 27 -26 25 -29 -3 -2 -21 9 -40
25 -19 15 -30 28 -25 28 6 0 23 -11 40 -24z m3655 -97 c0 -16 -3 -19 -11 -11
-6 6 -8 16 -5 22 11 17 16 13 16 -11z m12538 -78 c-5 -17 -7 -43 -3 -58 13
-53 21 -121 14 -116 -4 2 -10 23 -14 47 -3 23 -11 55 -17 70 -8 21 -8 31 1 40
6 6 11 19 11 29 0 10 4 18 9 18 6 0 6 -12 -1 -30z m-16294 -187 c-4 -16 -14
-37 -24 -48 -9 -11 -22 -29 -28 -40 -11 -20 -11 -20 -12 1 0 12 7 28 17 35 9
8 22 29 30 47 16 39 26 42 17 5z m16331 -103 c3 -5 1 -10 -4 -10 -6 0 -11 5
-11 10 0 6 2 10 4 10 3 0 8 -4 11 -10z m-16449 -301 c6 -10 -2 -11 -33 -3 -13
4 -23 10 -23 14 0 10 49 0 56 -11z m-170 -364 c-21 -16 -32 -13 -21 4 3 6 14
11 23 11 15 -1 15 -2 -2 -15z m-2491 -245 c-3 -5 -13 -10 -21 -10 -8 0 -14 5
-14 10 0 6 9 10 21 10 11 0 17 -4 14 -10z m2635 -585 c-7 -8 -20 -15 -29 -15
-13 1 -13 3 3 15 26 19 42 19 26 0z m-60 -25 c0 -5 -4 -10 -10 -10 -5 0 -10 5
-10 10 0 6 5 10 10 10 6 0 10 -4 10 -10z m-1270 -620 c0 -5 -5 -10 -11 -10 -5
0 -7 5 -4 10 3 6 8 10 11 10 2 0 4 -4 4 -10z m1356 -19 c-4 -6 -17 -10 -29
-10 -12 1 -38 -2 -57 -6 -29 -5 -32 -4 -16 5 10 7 34 14 53 15 19 2 38 6 41 9
9 9 15 -1 8 -13z m-969 -113 c-3 -8 -6 -5 -6 6 -1 11 2 17 5 13 3 -3 4 -12 1
-19z m-368 -138 c7 -16 5 -231 -3 -265 -2 -11 -5 -33 -6 -50 -1 -16 -4 -24 -7
-17 -2 6 -9 12 -14 12 -6 0 -8 -4 -5 -9 3 -4 -1 -16 -8 -26 -11 -16 -14 -11
-19 38 -4 30 -15 69 -24 86 -15 25 -16 34 -5 51 6 11 12 39 12 62 0 23 7 49
15 58 9 10 17 42 19 76 6 99 7 101 23 49 8 -27 18 -57 22 -65z m401 45 c0 -11
6 -29 13 -40 7 -11 12 -27 11 -35 -1 -8 -2 -23 -3 -32 -2 -27 -21 -21 -21 6 0
13 -7 43 -15 66 -8 23 -13 46 -10 50 3 5 1 11 -4 15 -6 3 -7 13 -4 21 5 14 8
12 19 -7 7 -13 13 -33 14 -44z m14035 -79 c33 -14 50 -30 23 -22 -7 3 -25 7
-40 10 -16 4 -28 11 -28 16 0 13 4 13 45 -4z m-13275 -115 c0 -24 5 -60 12
-78 10 -29 10 -36 -6 -51 -17 -16 -18 -16 -11 15 3 17 2 40 -3 50 -5 10 -12
47 -15 83 -5 58 -4 63 9 46 8 -11 14 -40 14 -65z m4090 19 c0 -5 -2 -10 -4
-10 -3 0 -8 5 -11 10 -3 6 -1 10 4 10 6 0 11 -4 11 -10z m9227 -22 c-3 -8 -6
-5 -6 6 -1 11 2 17 5 13 3 -3 4 -12 1 -19z m-9261 2 c19 -8 24 -14 17 -21 -11
-11 -53 8 -53 23 0 10 3 10 36 -2z m-18 -43 c6 -7 7 -18 3 -25 -6 -10 -13 -11
-34 -1 -21 9 -24 15 -16 26 14 17 33 17 47 0z m-1092 -58 c10 -33 10 -38 -1
-29 -7 6 -15 26 -17 45 -5 43 3 36 18 -16z m33 -62 c6 -8 8 -17 4 -20 -7 -8
-33 11 -33 24 0 13 16 11 29 -4z m-4889 -102 c0 -14 -4 -25 -9 -25 -4 0 -6 11
-3 25 2 14 6 25 8 25 2 0 4 -11 4 -25z m14787 -7 c-3 -7 -5 -2 -5 12 0 14 2
19 5 13 2 -7 2 -19 0 -25z m-14107 -14 c0 -8 -6 -11 -15 -8 -8 4 -15 12 -15
20 0 8 6 11 15 8 8 -4 15 -12 15 -20z m14810 16 c0 -6 -11 -9 -25 -7 -37 5
-42 17 -7 17 18 0 32 -5 32 -10z m50 -14 c0 -3 -4 -8 -10 -11 -5 -3 -10 -1
-10 4 0 6 5 11 10 11 6 0 10 -2 10 -4z m-30 -16 c0 -5 -9 -10 -20 -10 -11 0
-20 5 -20 10 0 6 9 10 20 10 11 0 20 -4 20 -10z m70 6 c0 -3 -4 -8 -10 -11 -5
-3 -10 -1 -10 4 0 6 5 11 10 11 6 0 10 -2 10 -4z m49 -46 c53 -33 112 -100 88
-100 -8 0 -25 16 -38 35 -13 20 -35 38 -49 42 -14 3 -31 12 -38 20 -7 7 -21
13 -30 13 -15 0 -15 2 -2 10 19 12 12 14 69 -20z m-14950 -1 c-16 -10 -23 -4
-14 10 3 6 11 8 17 5 6 -4 5 -9 -3 -15z m-718 -63 c-12 -12 -21 -30 -21 -40 0
-9 -4 -15 -9 -12 -14 9 -7 32 19 68 15 20 25 27 28 19 2 -7 -5 -23 -17 -35z
m690 -53 c-9 -16 -10 -15 -11 8 0 14 3 29 8 33 12 12 14 -22 3 -41z m3387 -49
c-5 -18 -5 -18 -13 1 -5 11 -22 30 -37 43 -15 13 -25 28 -22 34 10 16 77 -56
72 -78z m-3051 12 c0 -8 -8 -11 -20 -8 -14 4 -16 7 -5 13 19 12 25 11 25 -5z
m14838 -6 c3 -6 -1 -7 -9 -4 -18 7 -21 14 -7 14 6 0 13 -4 16 -10z m-14855
-35 c0 -8 -4 -15 -10 -15 -5 0 -7 7 -4 15 4 8 8 15 10 15 2 0 4 -7 4 -15z
m3065 -56 c-32 -5 -63 -5 -67 -1 -4 4 23 8 60 8 l67 2 -60 -9z m-3085 -52 c0
-8 -9 -24 -20 -37 -11 -13 -20 -32 -20 -44 -1 -25 -22 -56 -39 -56 -7 0 -11
-20 -11 -54 0 -30 -4 -58 -10 -61 -6 -4 -10 5 -10 20 0 15 -4 24 -10 20 -20
-12 -10 44 13 72 12 15 29 42 36 58 25 57 41 80 51 78 5 -2 10 2 10 7 0 6 2
10 5 10 3 0 5 -6 5 -13z m-139 -300 c-13 -13 -15 21 -3 50 6 15 8 13 10 -11 2
-16 -1 -33 -7 -39z m-845 23 c4 -16 13 -35 20 -41 22 -18 16 -31 -13 -27 -24
3 -28 8 -28 33 0 17 -6 34 -14 39 -11 7 -11 10 0 17 23 14 29 11 35 -21z m104
-66 c0 -3 -7 -12 -15 -21 -20 -19 -32 -10 -14 11 14 15 29 21 29 10z m9325
-127 c23 -18 12 -24 -61 -35 -32 -5 -60 -15 -62 -21 -2 -6 -10 -11 -17 -11
-20 0 -30 21 -14 31 8 4 15 14 15 21 1 7 2 16 3 21 2 13 116 8 136 -6z m-9275
-68 c0 -10 -4 -19 -10 -19 -5 0 -10 12 -10 26 0 14 4 23 10 19 6 -3 10 -15 10
-26z m37 -31 c-3 -8 -6 -5 -6 6 -1 11 2 17 5 13 3 -3 4 -12 1 -19z m18048
-257 c35 -108 39 -122 24 -91 -7 14 -23 47 -36 73 -13 27 -23 56 -23 66 0 9
-7 27 -16 40 -16 22 -15 22 3 10 12 -7 31 -46 48 -98z m-2845 -51 c0 -5 -5
-10 -11 -10 -5 0 -7 5 -4 10 3 6 8 10 11 10 2 0 4 -4 4 -10z m-150 -30 c0 -5
-2 -10 -4 -10 -3 0 -8 5 -11 10 -3 6 -1 10 4 10 6 0 11 -4 11 -10z m-5837 -16
c40 -9 78 -21 85 -27 24 -19 -13 -40 -76 -45 -57 -4 -59 -3 -86 32 -25 34 -28
56 -5 56 6 0 42 -7 82 -16z m6727 -19 c4 3 10 -9 12 -25 3 -21 -1 -35 -14 -47
-16 -14 -18 -14 -18 0 0 10 -8 14 -25 12 -38 -4 -39 9 -2 50 24 27 33 33 35
21 2 -9 7 -14 12 -11z m-13991 -68 c1 -10 -3 -15 -9 -12 -5 3 -10 21 -9 38 0
27 2 29 9 12 5 -11 9 -28 9 -38z m13851 27 c0 -8 9 -14 19 -14 22 0 33 -22 24
-46 -5 -14 -3 -15 15 -5 31 16 44 14 37 -8 -4 -14 -1 -18 11 -17 9 0 19 -5 21
-12 3 -7 -1 -11 -7 -10 -7 2 -15 -3 -17 -9 -3 -7 2 -13 11 -13 9 0 13 -6 10
-14 -4 -11 -12 -12 -39 -3 -19 5 -31 15 -28 20 3 6 1 7 -5 3 -7 -4 -24 0 -39
8 -16 8 -36 17 -46 20 -17 5 -17 7 -1 31 14 21 14 28 3 42 -10 11 -10 14 -1 9
8 -5 12 1 12 19 0 15 4 24 10 20 6 -3 10 -13 10 -21z m175 -21 c-6 -27 -6 -27
9 -8 15 20 15 20 13 -1 0 -12 -7 -21 -14 -20 -20 3 -25 13 -18 35 10 31 18 25
10 -6z m-15926 -47 c-1 -6 -4 -22 -8 -36 -6 -20 -9 -15 -12 28 -3 44 -2 50 9
35 6 -9 12 -22 11 -27z m1924 -87 c5 -4 7 -19 5 -34 -3 -14 -1 -45 4 -67 5
-23 6 -61 2 -85 -6 -39 -8 -42 -19 -26 -7 11 -13 58 -14 116 -1 54 -7 107 -13
116 -6 11 -8 26 -3 37 7 16 9 14 18 -16 6 -19 15 -38 20 -41z m16204 40 c2
-11 10 -33 18 -50 9 -16 13 -29 10 -29 -8 0 -45 81 -45 99 0 20 13 4 17 -20z
m-3067 -35 c0 -2 -7 -4 -15 -4 -8 0 -15 4 -15 10 0 5 7 7 15 4 8 -4 15 -8 15
-10z m663 -21 c-21 -16 -33 -16 -33 -2 0 19 34 39 42 26 4 -7 0 -18 -9 -24z
m-15679 -49 c17 -6 22 -24 8 -24 -5 0 -17 7 -28 15 -19 15 -8 20 20 9z m15026
-18 c0 -11 -19 -15 -25 -6 -3 5 1 10 9 10 9 0 16 -2 16 -4z m-222 -68 c-3 -19
0 -29 11 -31 9 -3 0 -5 -20 -6 -19 0 -44 5 -54 13 -18 13 -18 15 10 44 23 25
32 29 43 20 8 -7 12 -24 10 -40z m-14742 -13 c3 -13 12 -29 20 -36 15 -12 20
-64 5 -55 -5 3 -12 18 -16 33 -3 15 -10 30 -14 33 -14 9 -23 50 -12 50 6 0 13
-11 17 -25z m14615 15 c5 0 9 -5 9 -11 0 -15 -43 -7 -48 10 -3 10 0 12 12 8
10 -4 22 -7 27 -7z m231 -2 c-7 -7 -12 -22 -12 -35 0 -13 -4 -23 -8 -23 -11 0
-47 39 -41 44 28 23 83 36 61 14z m1633 -17 c3 -6 -4 -9 -15 -8 -11 1 -20 5
-20 9 0 11 28 10 35 -1z m-16470 -121 c3 -5 1 -10 -4 -10 -6 0 -11 5 -11 10 0
6 2 10 4 10 3 0 8 -4 11 -10z m-55 -64 c0 -2 -8 -10 -17 -17 -16 -13 -17 -12
-4 4 13 16 21 21 21 13z m133 -61 c35 -18 52 -55 25 -55 -6 0 0 -13 15 -28 21
-22 24 -31 15 -40 -17 -17 -26 -15 -34 10 -4 13 -13 27 -19 33 -14 11 -59 109
-47 103 4 -2 24 -12 45 -23z m9302 -185 c-3 -5 -12 -10 -18 -10 -7 0 -6 4 3
10 19 12 23 12 15 0z m-9428 -448 c23 -20 47 -48 52 -64 13 -37 -3 -27 -19 12
-7 16 -18 30 -24 30 -7 0 -32 19 -56 42 -53 48 -18 33 47 -20z m567 -1 c13
-14 14 -20 4 -24 -8 -2 -19 6 -25 19 -13 29 -3 31 21 5z m-339 -169 c17 -11
55 -69 55 -82 0 -15 -34 27 -43 53 -4 9 -17 22 -29 27 -13 5 -16 9 -8 9 8 0
20 -3 25 -7z m338 -144 c10 -21 23 -38 28 -38 5 0 9 -7 9 -15 0 -8 9 -19 19
-25 11 -5 22 -24 26 -42 10 -44 50 -96 77 -100 18 -2 24 -12 29 -41 3 -21 11
-43 18 -50 6 -6 11 -15 11 -21 0 -13 -33 24 -45 51 -6 12 -34 47 -63 77 -43
45 -58 55 -78 51 -13 -3 -36 -8 -51 -11 -19 -4 -25 -2 -18 5 8 8 38 16 78 20
16 2 6 28 -23 59 -29 32 -34 43 -31 68 1 6 -10 17 -24 24 -31 17 -33 32 -2 28
14 -2 29 -16 40 -40z m16033 -250 c-2 -24 -5 -46 -5 -50 -1 -5 -7 -8 -15 -8
-11 0 -12 8 -6 33 18 74 33 89 26 25z m-136 -187 c0 -12 -42 -42 -49 -36 -5 6
29 45 41 45 4 0 8 -4 8 -9z m-50 -91 c0 -5 -7 -10 -16 -10 -8 0 -12 5 -9 10 3
6 10 10 16 10 5 0 9 -4 9 -10z m-191 -230 c-11 -23 -26 -43 -34 -47 -8 -3 -15
-11 -15 -19 0 -8 -5 -14 -10 -14 -6 0 -34 -22 -62 -50 -28 -27 -57 -50 -63
-50 -7 0 -31 -18 -54 -40 -40 -39 -67 -52 -59 -28 2 6 13 16 23 22 10 6 32 26
48 44 17 19 39 32 53 32 16 0 30 10 43 31 10 17 22 29 26 28 13 -4 87 75 74
80 -6 2 1 14 17 27 16 13 30 23 31 24 0 0 -8 -18 -18 -40z m41 -10 c-24 -19
-40 -25 -40 -15 0 5 51 34 60 34 3 0 -6 -8 -20 -19z"/>
<path d="M16610 3109 c0 -5 5 -7 10 -4 6 3 10 8 10 11 0 2 -4 4 -10 4 -5 0
-10 -5 -10 -11z"/>
<path d="M16610 3070 c0 -5 5 -10 11 -10 5 0 7 5 4 10 -3 6 -8 10 -11 10 -2 0
-4 -4 -4 -10z"/>
<path d="M16655 3060 c-3 -5 1 -10 9 -10 9 0 16 5 16 10 0 6 -4 10 -9 10 -6 0
-13 -4 -16 -10z"/>
</g>
</svg>
