<?xml version="1.0" encoding="utf-8"?>
<!-- Generator: Adobe Illustrator 27.5.0, SVG Export Plug-In . SVG Version: 6.00 Build 0)  -->
<svg version="1.1" id="Layer_1" xmlns="http://www.w3.org/2000/svg" xmlns:xlink="http://www.w3.org/1999/xlink" x="0px" y="0px"
	 viewBox="0 0 1200 1200" style="enable-background:new 0 0 1200 1200;" xml:space="preserve">
<g>
	<g>
		<polygon style="fill:#CAD6D6;" points="1009.419,389.531 1009.419,379.59 919.291,362.421 919.291,390.175 		"/>
	</g>
	<g>
		<polygon style="fill:#CAD6D6;" points="601.031,362.421 512.088,373.82 512.088,389.531 601.082,389.531 		"/>
	</g>
	<g>
		<rect x="879.438" y="668.693" style="fill:#CAD6D6;" width="19.883" height="199.533"/>
	</g>
	<g>
		<g>
			<rect x="275.092" y="534.922" style="fill:#CAD6D6;" width="526.414" height="48.454"/>
		</g>
		<g>
			<path style="fill:#43484E;" d="M801.506,586.349H275.092c-1.642,0-2.974-1.332-2.974-2.974v-48.453
				c0-1.642,1.331-2.974,2.974-2.974h526.414c1.642,0,2.974,1.331,2.974,2.974v48.453
				C804.48,585.018,803.149,586.349,801.506,586.349z M278.066,580.402h520.467v-42.506H278.066V580.402z"/>
		</g>
	</g>
	<g>
		<g>
			<rect x="275.092" y="583.376" style="fill:#FFFFFF;" width="526.414" height="223.85"/>
		</g>
		<g>
			<path style="fill:#43484E;" d="M801.506,810.2H275.092c-1.642,0-2.974-1.331-2.974-2.974V583.376
				c0-1.642,1.331-2.974,2.974-2.974h526.414c1.642,0,2.974,1.332,2.974,2.974v223.851C804.48,808.869,803.149,810.2,801.506,810.2z
				 M278.066,804.253h520.467V586.349H278.066V804.253z"/>
		</g>
	</g>
	<g>
		<path style="fill:#D9E484;" d="M779.768,787.06H640.656c-2.999,0-5.43-2.431-5.43-5.43v-79.123c0-2.999,2.431-5.43,5.43-5.43
			h139.112c2.999,0,5.43,2.431,5.43,5.43v79.123C785.198,784.629,782.767,787.06,779.768,787.06z"/>
	</g>
	<g>
		<path style="fill:#4BB7E8;" d="M706.871,634.035H306.677c-1.845,0-3.341-1.496-3.341-3.341v-25.321
			c0-1.845,1.496-3.341,3.341-3.341h400.194c1.845,0,3.341,1.496,3.341,3.341v25.321
			C710.212,632.539,708.716,634.035,706.871,634.035z"/>
	</g>
	<g>
		<g>
			<rect x="675.653" y="548.064" style="fill:#FCC20E;" width="22.17" height="22.17"/>
		</g>
		<g>
			<path style="fill:#43484E;" d="M697.823,571.721h-22.17c-0.821,0-1.487-0.666-1.487-1.487v-22.17
				c0-0.821,0.666-1.487,1.487-1.487h22.17c0.821,0,1.487,0.666,1.487,1.487v22.17C699.31,571.055,698.644,571.721,697.823,571.721z
				 M677.14,568.747h19.196v-19.196H677.14V568.747z"/>
		</g>
	</g>
	<g>
		<g>
			<rect x="794.165" y="819.404" style="fill:#90D5F5;" width="22.17" height="22.17"/>
		</g>
		<g>
			<path style="fill:#43484E;" d="M816.335,843.804h-22.17c-1.232,0-2.23-0.998-2.23-2.23v-22.17c0-1.232,0.998-2.23,2.23-2.23
				h22.17c1.232,0,2.23,0.998,2.23,2.23v22.17C818.565,842.805,817.567,843.804,816.335,843.804z M796.395,839.343h17.709v-17.709
				h-17.709V839.343z"/>
		</g>
	</g>
	<g>
		<g>
			<rect x="412.431" y="843.948" style="fill:#FFFFFF;" width="22.17" height="22.17"/>
		</g>
		<g>
			<path style="fill:#43484E;" d="M434.6,868.347h-22.17c-1.232,0-2.23-0.998-2.23-2.23v-22.17c0-1.232,0.998-2.23,2.23-2.23h22.17
				c1.232,0,2.23,0.998,2.23,2.23v22.17C436.831,867.349,435.832,868.347,434.6,868.347z M414.661,863.887h17.709v-17.709h-17.709
				V863.887z"/>
		</g>
	</g>
	<g>
		<g>
			<rect x="952.17" y="687.432" style="fill:#D9E484;" width="22.17" height="22.17"/>
		</g>
		<g>
			<path style="fill:#43484E;" d="M974.34,711.832h-22.17c-1.232,0-2.23-0.998-2.23-2.23v-22.17c0-1.232,0.998-2.23,2.23-2.23h22.17
				c1.232,0,2.23,0.998,2.23,2.23v22.17C976.57,710.834,975.572,711.832,974.34,711.832z M954.401,707.371h17.709v-17.709h-17.709
				V707.371z"/>
		</g>
	</g>
	<g>
		<g>
			<rect x="406.461" y="378.592" style="fill:#FCC20E;" width="22.17" height="22.17"/>
		</g>
		<g>
			<path style="fill:#43484E;" d="M428.63,402.993h-22.17c-1.232,0-2.23-0.998-2.23-2.23v-22.17c0-1.232,0.998-2.23,2.23-2.23h22.17
				c1.232,0,2.23,0.998,2.23,2.23v22.17C430.861,401.995,429.863,402.993,428.63,402.993z M408.691,398.532H426.4v-17.709h-17.709
				V398.532z"/>
		</g>
	</g>
	<g>
		<g>
			<rect x="718.037" y="548.064" style="fill:#FFFFFF;" width="22.17" height="22.17"/>
		</g>
		<g>
			<path style="fill:#43484E;" d="M740.207,571.721h-22.17c-0.821,0-1.487-0.666-1.487-1.487v-22.17
				c0-0.821,0.666-1.487,1.487-1.487h22.17c0.821,0,1.487,0.666,1.487,1.487v22.17C741.693,571.055,741.028,571.721,740.207,571.721
				z M719.524,568.747h19.196v-19.196h-19.196V568.747z"/>
		</g>
	</g>
	<g>
		<g>
			<rect x="760.42" y="548.064" style="fill:#EF5555;" width="22.17" height="22.17"/>
		</g>
		<g>
			<path style="fill:#43484E;" d="M782.591,571.721h-22.17c-0.821,0-1.487-0.666-1.487-1.487v-22.17
				c0-0.821,0.666-1.487,1.487-1.487h22.17c0.821,0,1.487,0.666,1.487,1.487v22.17C784.077,571.055,783.412,571.721,782.591,571.721
				z M761.907,568.747h19.196v-19.196h-19.196V568.747z"/>
		</g>
	</g>
	<g>
		<g>
			<rect x="228.535" y="802.553" style="fill:#EF5555;" width="22.17" height="22.17"/>
		</g>
		<g>
			<path style="fill:#43484E;" d="M250.705,826.953h-22.17c-1.232,0-2.23-0.998-2.23-2.23v-22.17c0-1.232,0.998-2.23,2.23-2.23
				h22.17c1.232,0,2.23,0.998,2.23,2.23v22.17C252.935,825.955,251.937,826.953,250.705,826.953z M230.765,822.493h17.709v-17.709
				h-17.709V822.493z"/>
		</g>
	</g>
	<g>
		<g>
			<g>
				<path style="fill:#FCC20E;" d="M310.365,659.509c3.143-3.16,6.931-4.74,11.366-4.74c4.434,0,8.223,1.58,11.366,4.74
					c3.142,3.16,4.713,6.959,4.713,11.394v5.34h-10.684v-5.34c0-1.502-0.524-2.777-1.572-3.825
					c-1.048-1.047-2.323-1.572-3.824-1.572c-1.501,0-2.767,0.524-3.797,1.572c-1.031,1.048-1.545,2.323-1.545,3.825v42.894
					c0,1.503,0.514,2.768,1.545,3.797c1.03,1.031,2.296,1.545,3.797,1.545c1.501,0,2.776-0.514,3.824-1.545
					c1.047-1.029,1.572-2.294,1.572-3.797v-5.393h10.684v5.393c0,4.435-1.571,8.224-4.713,11.367
					c-3.143,3.141-6.932,4.713-11.366,4.713c-4.435,0-8.223-1.572-11.366-4.713c-3.143-3.144-4.713-6.932-4.713-11.367v-42.894
					C305.652,666.468,307.223,662.669,310.365,659.509z"/>
				<path style="fill:#43484E;" d="M321.731,731.364c-4.822,0-9-1.732-12.418-5.149c-3.417-3.417-5.149-7.595-5.149-12.418v-42.894
					c0-4.823,1.732-9.009,5.146-12.442c3.417-3.436,7.596-5.179,12.42-5.179c4.825,0,9.003,1.742,12.42,5.179
					c3.415,3.434,5.147,7.62,5.147,12.442v5.34c0,0.821-0.666,1.487-1.487,1.487h-10.684c-0.821,0-1.487-0.666-1.487-1.487v-5.34
					c0-1.102-0.372-2.01-1.136-2.774c-0.764-0.765-1.671-1.136-2.772-1.136c-1.096,0-1.992,0.369-2.738,1.127
					c-0.752,0.765-1.118,1.675-1.118,2.783v42.894c0,1.103,0.362,2,1.109,2.744c0.748,0.748,1.646,1.111,2.747,1.111
					c1.106,0,2.016-0.366,2.78-1.118c0.759-0.746,1.128-1.641,1.128-2.738v-5.393c0-0.821,0.666-1.487,1.487-1.487h10.684
					c0.821,0,1.487,0.666,1.487,1.487v5.393c0,4.823-1.732,9.001-5.15,12.418C330.731,729.632,326.553,731.364,321.731,731.364z
					 M321.731,656.256c-4.061,0-7.434,1.407-10.312,4.302c-2.88,2.897-4.281,6.281-4.281,10.346v42.894
					c0,4.062,1.399,7.436,4.278,10.316c2.88,2.879,6.254,4.278,10.315,4.278c4.061,0,7.435-1.399,10.314-4.278
					c2.879-2.88,4.278-6.254,4.278-10.316v-3.907h-7.711v3.907c0,1.909-0.679,3.544-2.017,4.858
					c-1.328,1.308-2.966,1.972-4.865,1.972c-1.904,0-3.536-0.666-4.85-1.981c-1.313-1.311-1.98-2.943-1.98-4.848v-42.894
					c0-1.901,0.664-3.539,1.972-4.868c1.316-1.338,2.95-2.016,4.858-2.016c1.903,0,3.544,0.675,4.875,2.007
					c1.331,1.331,2.007,2.972,2.007,4.877v3.853h7.711v-3.853c0-4.065-1.401-7.449-4.281-10.346
					C329.165,657.663,325.792,656.256,321.731,656.256z"/>
			</g>
			<g>
				<path style="fill:#FCC20E;" d="M355.587,659.509c3.143-3.16,6.931-4.74,11.366-4.74c4.434,0,8.224,1.58,11.366,4.74
					c3.142,3.16,4.713,6.959,4.713,11.394v42.894c0,4.435-1.571,8.224-4.713,11.367c-3.143,3.141-6.932,4.713-11.366,4.713
					c-4.435,0-8.223-1.572-11.366-4.713c-3.143-3.144-4.713-6.932-4.713-11.367v-42.894
					C350.874,666.468,352.445,662.669,355.587,659.509z M370.777,667.078c-1.048-1.047-2.322-1.572-3.824-1.572
					c-1.501,0-2.767,0.524-3.797,1.572c-1.031,1.048-1.545,2.323-1.545,3.825v15.188v12.57v15.136c0,1.503,0.514,2.768,1.545,3.797
					c1.03,1.031,2.296,1.545,3.797,1.545c1.501,0,2.776-0.514,3.824-1.545c1.048-1.029,1.572-2.294,1.572-3.797v-15.136v-12.57
					v-15.188C372.349,669.4,371.825,668.125,370.777,667.078z"/>
				<path style="fill:#43484E;" d="M366.953,731.364c-4.822,0-8.999-1.732-12.417-5.149c-3.417-3.417-5.149-7.595-5.149-12.418
					v-42.894c0-4.823,1.732-9.009,5.146-12.442c3.417-3.436,7.595-5.179,12.42-5.179c4.825,0,9.004,1.742,12.42,5.179
					c3.414,3.433,5.146,7.619,5.146,12.442v42.894c0,4.823-1.732,9.001-5.149,12.418
					C375.953,729.632,371.776,731.364,366.953,731.364z M366.953,656.256c-4.06,0-7.433,1.407-10.311,4.302
					c-2.88,2.897-4.281,6.281-4.281,10.346v42.894c0,4.062,1.399,7.436,4.278,10.316c2.879,2.879,6.253,4.278,10.314,4.278
					c4.062,0,7.436-1.399,10.315-4.278c2.879-2.879,4.278-6.254,4.278-10.316v-42.894c0-4.065-1.401-7.449-4.281-10.346
					C374.387,657.663,371.014,656.256,366.953,656.256z M366.953,720.627c-1.904,0-3.535-0.666-4.849-1.981
					c-1.313-1.311-1.98-2.943-1.98-4.848v-42.894c0-1.901,0.664-3.539,1.972-4.868c1.315-1.338,2.95-2.016,4.857-2.016
					c1.903,0,3.544,0.675,4.875,2.007c1.332,1.331,2.007,2.972,2.007,4.877v42.894c0,1.909-0.679,3.544-2.017,4.858
					C370.49,719.963,368.852,720.627,366.953,720.627z M366.953,666.993c-1.095,0-1.991,0.369-2.737,1.127
					c-0.752,0.765-1.118,1.675-1.118,2.783v42.894c0,1.103,0.362,2,1.109,2.744c0.748,0.748,1.645,1.111,2.746,1.111
					c1.106,0,2.016-0.366,2.781-1.119c0.759-0.746,1.128-1.64,1.128-2.737v-42.894c0-1.102-0.372-2.01-1.136-2.774
					C368.961,667.365,368.055,666.993,366.953,666.993z"/>
			</g>
			<g>
				<path style="fill:#FCC20E;" d="M416.837,713.797l-8.066-24.145v40.225h-10.738v-75.108h10.738l13.408,40.225l13.408-40.225
					h10.738v75.108h-10.738v-40.225l-8.014,24.145H416.837z"/>
				<path style="fill:#43484E;" d="M446.326,731.364h-10.738c-0.821,0-1.487-0.666-1.487-1.487v-31.026l-5.115,15.414
					c-0.202,0.608-0.77,1.019-1.411,1.019h-10.737c-0.64,0-1.207-0.409-1.41-1.016l-5.169-15.473v31.082
					c0,0.821-0.666,1.487-1.487,1.487h-10.738c-0.821,0-1.487-0.666-1.487-1.487v-75.108c0-0.821,0.666-1.487,1.487-1.487h10.738
					c0.64,0,1.208,0.409,1.411,1.016l11.998,35.994l11.997-35.994c0.203-0.607,0.77-1.016,1.411-1.016h10.738
					c0.821,0,1.487,0.666,1.487,1.487v75.108C447.813,730.699,447.147,731.364,446.326,731.364z M437.075,728.391h7.764v-72.135
					h-8.18l-13.069,39.209c-0.203,0.607-0.77,1.016-1.411,1.016c-0.64,0-1.208-0.409-1.411-1.016L407.7,656.256h-8.179v72.135h7.764
					v-38.739c0-0.729,0.529-1.35,1.248-1.467c0.724-0.121,1.418,0.304,1.649,0.996l7.727,23.13h8.593l7.675-23.127
					c0.23-0.692,0.927-1.117,1.649-1c0.72,0.117,1.25,0.738,1.25,1.468V728.391z"/>
			</g>
			<g>
				<path style="fill:#FCC20E;" d="M473.006,729.878H462.27v-75.108h10.737V729.878z"/>
				<path style="fill:#43484E;" d="M473.007,731.364H462.27c-0.821,0-1.487-0.666-1.487-1.487v-75.108
					c0-0.821,0.666-1.487,1.487-1.487h10.737c0.821,0,1.487,0.666,1.487,1.487v75.108
					C474.493,730.699,473.828,731.364,473.007,731.364z M463.757,728.391h7.763v-72.135h-7.763V728.391z"/>
			</g>
			<g>
				<path style="fill:#FCC20E;" d="M488.532,654.769h10.737l10.737,37.554v-37.554h10.738v75.108h-10.738l-10.737-37.554v37.554
					h-10.737V654.769z"/>
				<path style="fill:#43484E;" d="M520.743,731.364h-10.738c-0.664,0-1.247-0.44-1.43-1.078l-7.82-27.354v26.945
					c0,0.821-0.666,1.487-1.487,1.487h-10.737c-0.821,0-1.487-0.666-1.487-1.487v-75.108c0-0.821,0.666-1.487,1.487-1.487h10.737
					c0.664,0,1.247,0.44,1.43,1.078l7.82,27.354v-26.945c0-0.821,0.666-1.487,1.487-1.487h10.738c0.821,0,1.487,0.666,1.487,1.487
					v75.108C522.23,730.699,521.564,731.364,520.743,731.364z M511.127,728.391h8.13v-72.135h-7.764v36.068
					c0,0.741-0.546,1.369-1.281,1.472c-0.737,0.102-1.432-0.351-1.636-1.064l-10.429-36.477h-8.128v72.135h7.763v-36.067
					c0-0.741,0.546-1.369,1.281-1.472c0.73-0.113,1.432,0.349,1.636,1.064L511.127,728.391z"/>
			</g>
			<g>
				<path style="fill:#FCC20E;" d="M539.985,659.509c3.143-3.16,6.931-4.74,11.366-4.74c4.434,0,8.223,1.58,11.366,4.74
					c3.143,3.16,4.713,6.959,4.713,11.394h-10.684c0-1.502-0.524-2.777-1.572-3.825c-1.047-1.047-2.322-1.572-3.824-1.572
					c-1.501,0-2.767,0.524-3.797,1.572c-1.031,1.048-1.545,2.323-1.545,3.825v42.894c0,1.503,0.514,2.768,1.545,3.797
					c1.03,1.031,2.296,1.545,3.797,1.545c1.501,0,2.776-0.514,3.824-1.545c1.048-1.029,1.572-2.294,1.572-3.797v-16.078h-5.395
					v-10.738h16.079v26.816c0,4.435-1.571,8.224-4.713,11.367c-3.143,3.141-6.932,4.713-11.366,4.713
					c-4.435,0-8.223-1.572-11.366-4.713c-3.142-3.144-4.713-6.932-4.713-11.367v-42.894
					C535.272,666.468,536.843,662.669,539.985,659.509z"/>
				<path style="fill:#43484E;" d="M551.351,731.364c-4.822,0-9-1.732-12.417-5.149c-3.417-3.417-5.149-7.595-5.149-12.418v-42.894
					c0-4.823,1.732-9.009,5.146-12.442c3.417-3.436,7.595-5.179,12.42-5.179s9.004,1.742,12.42,5.179
					c3.414,3.433,5.146,7.619,5.146,12.442c0,0.821-0.666,1.487-1.487,1.487h-10.684c-0.821,0-1.487-0.666-1.487-1.487
					c0-1.102-0.372-2.01-1.136-2.774c-0.764-0.765-1.672-1.136-2.773-1.136c-1.096,0-1.991,0.369-2.737,1.127
					c-0.752,0.765-1.118,1.675-1.118,2.783v42.894c0,1.103,0.362,2,1.109,2.744c0.748,0.748,1.645,1.111,2.746,1.111
					c1.106,0,2.016-0.366,2.781-1.119c0.759-0.746,1.128-1.64,1.128-2.737v-14.592h-3.909c-0.821,0-1.487-0.666-1.487-1.487v-10.737
					c0-0.821,0.666-1.487,1.487-1.487h16.079c0.821,0,1.487,0.666,1.487,1.487v26.816c0,4.823-1.732,9.001-5.149,12.418
					C560.351,729.632,556.174,731.364,551.351,731.364z M551.351,656.256c-4.06,0-7.434,1.407-10.311,4.302
					c-2.88,2.897-4.281,6.281-4.281,10.346v42.894c0,4.062,1.399,7.436,4.278,10.316c2.879,2.879,6.253,4.278,10.314,4.278
					c4.062,0,7.436-1.399,10.315-4.278c2.879-2.879,4.278-6.254,4.278-10.316v-25.33h-13.106v7.764h3.909
					c0.821,0,1.487,0.666,1.487,1.487v16.079c0,1.909-0.679,3.544-2.017,4.858c-1.329,1.308-2.966,1.972-4.866,1.972
					c-1.904,0-3.535-0.666-4.849-1.981c-1.313-1.311-1.98-2.943-1.98-4.848v-42.894c0-1.901,0.664-3.539,1.972-4.868
					c1.316-1.338,2.95-2.016,4.857-2.016c1.903,0,3.544,0.675,4.875,2.007c0.971,0.971,1.594,2.107,1.859,3.39h7.793
					c-0.306-3.413-1.694-6.323-4.215-8.859C558.785,657.663,555.412,656.256,551.351,656.256z"/>
			</g>
			<g>
				<path style="fill:#FCC20E;" d="M616.289,708.404v5.393c0,1.503,0.524,2.768,1.572,3.797c1.048,1.031,2.321,1.545,3.823,1.545
					c1.501,0,2.767-0.514,3.798-1.545c1.029-1.029,1.544-2.294,1.544-3.797v-10.736c0-1.501-0.516-2.768-1.544-3.797
					c-1.031-1.031-2.297-1.545-3.798-1.545c-4.818-0.035-8.834-1.835-12.046-5.395c-2.724-3.073-4.085-6.652-4.085-10.738v-10.683
					c0-4.435,1.58-8.233,4.74-11.394c3.16-3.16,6.957-4.74,11.392-4.74c4.434,0,8.223,1.58,11.366,4.74
					c3.143,3.16,4.714,6.959,4.714,11.394v5.34h-0.996h-9.742v-5.34c0-1.502-0.516-2.777-1.544-3.825
					c-1.031-1.047-2.297-1.572-3.798-1.572c-1.501,0-2.775,0.524-3.823,1.572c-1.047,1.048-1.572,2.323-1.572,3.825v10.683
					c0,1.503,0.524,2.777,1.572,3.824c1.048,1.049,2.321,1.572,3.823,1.572c4.784,0,8.782,1.782,11.995,5.343
					c2.723,3.073,4.085,6.652,4.085,10.738v10.736c0,4.435-1.572,8.224-4.714,11.367c-3.143,3.141-6.932,4.713-11.366,4.713
					c-4.434,0-8.231-1.572-11.392-4.713c-3.16-3.144-4.74-6.932-4.74-11.367v-5.393H616.289z"/>
				<path style="fill:#43484E;" d="M621.683,731.364c-4.82,0-9.005-1.732-12.44-5.146c-3.436-3.418-5.179-7.597-5.179-12.421v-5.393
					c0-0.821,0.666-1.487,1.487-1.487h10.737c0.821,0,1.487,0.666,1.487,1.487v5.393c0,1.096,0.369,1.991,1.127,2.736
					c0.766,0.754,1.676,1.119,2.781,1.119c1.101,0,2-0.363,2.746-1.11c0.746-0.746,1.109-1.644,1.109-2.746v-10.736
					c0-1.101-0.363-1.999-1.109-2.746c-0.747-0.747-1.645-1.11-2.746-1.11c-5.24-0.038-9.662-2.018-13.151-5.886
					c-2.967-3.348-4.468-7.293-4.468-11.734v-10.682c0-4.823,1.741-9.011,5.176-12.445c3.434-3.435,7.621-5.176,12.443-5.176
					c4.825,0,9.003,1.742,12.42,5.179c3.416,3.434,5.147,7.621,5.147,12.442v5.34c0,0.821-0.666,1.487-1.487,1.487h-10.738
					c-0.821,0-1.487-0.666-1.487-1.487v-5.34c0-1.106-0.366-2.018-1.118-2.784c-0.746-0.758-1.641-1.127-2.737-1.127
					c-1.101,0-2.007,0.372-2.772,1.136c-0.765,0.765-1.136,1.673-1.136,2.774v10.682c0,1.101,0.372,2.008,1.136,2.773
					c0.764,0.764,1.67,1.136,2.772,1.136c5.199,0,9.607,1.962,13.099,5.833c2.968,3.349,4.469,7.293,4.469,11.734v10.736
					c0,4.822-1.733,9-5.15,12.418C630.683,729.632,626.505,731.364,621.683,731.364z M607.039,709.891v3.907
					c0,4.06,1.407,7.433,4.302,10.313c2.898,2.88,6.281,4.281,10.343,4.281c4.061,0,7.435-1.399,10.314-4.278
					c2.879-2.88,4.279-6.254,4.279-10.316v-10.736c0-3.743-1.214-6.933-3.711-9.752c-2.937-3.255-6.499-4.842-10.882-4.842
					c-1.904,0-3.544-0.675-4.875-2.007c-1.331-1.331-2.007-2.972-2.007-4.875v-10.682c0-1.903,0.675-3.544,2.007-4.877
					c1.332-1.332,2.972-2.007,4.875-2.007c1.907,0,3.542,0.678,4.858,2.016c1.308,1.332,1.971,2.969,1.971,4.868v3.853h7.765v-3.853
					c0-4.064-1.401-7.448-4.282-10.346c-2.878-2.895-6.251-4.302-10.311-4.302c-4.061,0-7.444,1.408-10.34,4.305
					c-2.897,2.897-4.304,6.28-4.304,10.343v10.682c0,3.745,1.214,6.935,3.711,9.752c2.939,3.258,6.522,4.862,10.944,4.894
					c1.892,0,3.523,0.667,4.838,1.981c1.314,1.313,1.98,2.945,1.98,4.848v10.736c0,1.904-0.666,3.535-1.98,4.848
					c-1.315,1.315-2.946,1.981-4.849,1.981c-1.898,0-3.536-0.664-4.866-1.973c-1.337-1.314-2.016-2.948-2.016-4.857v-3.907H607.039z
					"/>
			</g>
			<g>
				<path style="fill:#FCC20E;" d="M655.33,659.509c3.143-3.16,6.931-4.74,11.366-4.74c4.434,0,8.224,1.58,11.366,4.74
					c3.143,3.16,4.713,6.959,4.713,11.394v42.894c0,4.435-1.571,8.224-4.713,11.367c-3.143,3.141-6.932,4.713-11.366,4.713
					c-4.435,0-8.223-1.572-11.366-4.713c-3.143-3.144-4.713-6.932-4.713-11.367v-42.894
					C650.617,666.468,652.187,662.669,655.33,659.509z M670.519,667.078c-1.047-1.047-2.322-1.572-3.824-1.572
					s-2.767,0.524-3.797,1.572c-1.031,1.048-1.545,2.323-1.545,3.825v15.188v12.57v15.136c0,1.503,0.514,2.768,1.545,3.797
					c1.03,1.031,2.296,1.545,3.797,1.545s2.776-0.514,3.824-1.545c1.048-1.029,1.572-2.294,1.572-3.797v-15.136v-12.57v-15.188
					C672.091,669.4,671.567,668.125,670.519,667.078z"/>
				<path style="fill:#43484E;" d="M666.696,731.364c-4.823,0-9-1.732-12.418-5.149c-3.417-3.417-5.149-7.595-5.149-12.418v-42.894
					c0-4.823,1.732-9.009,5.146-12.442c3.417-3.436,7.595-5.179,12.42-5.179c4.825,0,9.003,1.742,12.42,5.179
					c3.414,3.433,5.146,7.619,5.146,12.442v42.894c0,4.823-1.732,9.001-5.149,12.418
					C675.696,729.632,671.518,731.364,666.696,731.364z M666.696,656.256c-4.061,0-7.434,1.407-10.312,4.302
					c-2.88,2.897-4.281,6.281-4.281,10.346v42.894c0,4.062,1.399,7.436,4.278,10.316c2.879,2.879,6.253,4.278,10.315,4.278
					c4.061,0,7.435-1.399,10.314-4.278c2.879-2.879,4.278-6.254,4.278-10.316v-42.894c0-4.065-1.401-7.449-4.28-10.346
					C674.13,657.663,670.757,656.256,666.696,656.256z M666.696,720.627c-1.904,0-3.536-0.666-4.85-1.981
					c-1.313-1.311-1.98-2.943-1.98-4.848v-42.894c0-1.901,0.664-3.539,1.972-4.868c1.315-1.338,2.95-2.016,4.858-2.016
					c1.903,0,3.543,0.675,4.874,2.007c1.332,1.331,2.007,2.972,2.007,4.877v42.894c0,1.909-0.679,3.544-2.017,4.858
					C670.232,719.963,668.595,720.627,666.696,720.627z M666.696,666.993c-1.096,0-1.991,0.369-2.738,1.127
					c-0.752,0.765-1.118,1.675-1.118,2.783v42.894c0,1.103,0.362,2,1.109,2.744c0.748,0.748,1.646,1.111,2.747,1.111
					c1.106,0,2.015-0.366,2.781-1.119c0.759-0.746,1.128-1.64,1.128-2.737v-42.894c0-1.102-0.372-2.01-1.136-2.774
					C668.704,667.365,667.797,666.993,666.696,666.993z"/>
			</g>
			<g>
				<path style="fill:#FCC20E;" d="M701.861,659.509c3.143-3.16,6.931-4.74,11.366-4.74c4.434,0,8.223,1.58,11.366,4.74
					c3.143,3.16,4.713,6.959,4.713,11.394v42.894c0,4.435-1.571,8.224-4.713,11.367c-3.143,3.141-6.932,4.713-11.366,4.713
					c-4.435,0-8.224-1.572-11.366-4.713c-3.143-3.144-4.713-6.932-4.713-11.367v-42.894
					C697.148,666.468,698.719,662.669,701.861,659.509z M717.051,667.078c-1.048-1.047-2.322-1.572-3.824-1.572
					c-1.501,0-2.767,0.524-3.797,1.572c-1.031,1.048-1.545,2.323-1.545,3.825v15.188v12.57v15.136c0,1.503,0.514,2.768,1.545,3.797
					c1.03,1.031,2.296,1.545,3.797,1.545c1.501,0,2.776-0.514,3.824-1.545c1.047-1.029,1.572-2.294,1.572-3.797v-15.136v-12.57
					v-15.188C718.623,669.4,718.099,668.125,717.051,667.078z"/>
				<path style="fill:#43484E;" d="M713.228,731.364c-4.823,0-9-1.732-12.418-5.149c-3.417-3.417-5.149-7.595-5.149-12.418v-42.894
					c0-4.823,1.732-9.009,5.146-12.442c3.417-3.436,7.595-5.179,12.42-5.179c4.825,0,9.003,1.742,12.42,5.179
					c3.414,3.433,5.146,7.619,5.146,12.442v42.894c0,4.823-1.732,9.001-5.149,12.418
					C722.227,729.632,718.05,731.364,713.228,731.364z M713.228,656.256c-4.061,0-7.434,1.407-10.312,4.302
					c-2.88,2.897-4.281,6.281-4.281,10.346v42.894c0,4.062,1.399,7.436,4.278,10.316c2.879,2.879,6.253,4.278,10.315,4.278
					c4.061,0,7.435-1.399,10.314-4.278c2.879-2.879,4.278-6.254,4.278-10.316v-42.894c0-4.065-1.4-7.449-4.28-10.346
					C720.661,657.663,717.288,656.256,713.228,656.256z M713.228,720.627c-1.904,0-3.536-0.666-4.85-1.981
					c-1.313-1.311-1.98-2.943-1.98-4.848v-42.894c0-1.901,0.664-3.539,1.972-4.868c1.315-1.338,2.95-2.016,4.858-2.016
					c1.903,0,3.543,0.675,4.874,2.007c1.332,1.331,2.007,2.972,2.007,4.877v42.894c0,1.909-0.679,3.544-2.017,4.858
					C716.763,719.963,715.126,720.627,713.228,720.627z M713.228,666.993c-1.096,0-1.991,0.369-2.738,1.127
					c-0.752,0.765-1.118,1.675-1.118,2.783v42.894c0,1.103,0.362,2,1.109,2.744c0.748,0.748,1.646,1.111,2.747,1.111
					c1.106,0,2.015-0.366,2.781-1.119c0.759-0.746,1.128-1.64,1.128-2.737v-42.894c0-1.102-0.372-2.01-1.136-2.774
					C715.235,667.365,714.328,666.993,713.228,666.993z"/>
			</g>
			<g>
				<path style="fill:#FCC20E;" d="M743.889,654.769h10.737l10.737,37.554v-37.554h10.738v75.108h-10.738l-10.737-37.554v37.554
					h-10.737V654.769z"/>
				<path style="fill:#43484E;" d="M776.101,731.364h-10.738c-0.664,0-1.247-0.44-1.43-1.078l-7.82-27.354v26.945
					c0,0.821-0.666,1.487-1.487,1.487H743.89c-0.821,0-1.487-0.666-1.487-1.487v-75.108c0-0.821,0.666-1.487,1.487-1.487h10.737
					c0.664,0,1.247,0.44,1.43,1.078l7.82,27.354v-26.945c0-0.821,0.666-1.487,1.487-1.487h10.738c0.821,0,1.487,0.666,1.487,1.487
					v75.108C777.588,730.699,776.922,731.364,776.101,731.364z M766.485,728.391h8.129v-72.135h-7.764v36.068
					c0,0.741-0.546,1.369-1.281,1.472c-0.735,0.102-1.432-0.351-1.636-1.064l-10.429-36.477h-8.128v72.135h7.763v-36.067
					c0-0.741,0.546-1.369,1.281-1.472c0.724-0.113,1.431,0.349,1.636,1.064L766.485,728.391z"/>
			</g>
		</g>
		<g>
			<g>
				<path style="fill:#FFFFFF;" d="M305.211,659.656c3.143-3.16,6.931-4.74,11.366-4.74c4.434,0,8.223,1.58,11.366,4.74
					c3.142,3.16,4.713,6.958,4.713,11.394v5.34h-10.684v-5.34c0-1.502-0.524-2.777-1.572-3.825
					c-1.048-1.047-2.323-1.572-3.824-1.572c-1.501,0-2.767,0.524-3.797,1.572c-1.031,1.047-1.545,2.323-1.545,3.825v42.894
					c0,1.503,0.514,2.768,1.545,3.797c1.03,1.031,2.296,1.545,3.797,1.545c1.501,0,2.776-0.514,3.824-1.545
					c1.047-1.029,1.572-2.294,1.572-3.797v-5.393h10.684v5.393c0,4.435-1.571,8.224-4.713,11.367
					c-3.143,3.141-6.932,4.713-11.366,4.713c-4.435,0-8.223-1.572-11.366-4.713c-3.143-3.144-4.713-6.932-4.713-11.367V671.05
					C300.498,666.615,302.069,662.817,305.211,659.656z"/>
				<path style="fill:#43484E;" d="M316.578,731.512c-4.822,0-9-1.732-12.418-5.149c-3.417-3.417-5.149-7.595-5.149-12.418V671.05
					c0-4.822,1.732-9.008,5.146-12.441c3.417-3.436,7.596-5.179,12.42-5.179c4.825,0,9.003,1.742,12.42,5.179
					c3.414,3.433,5.146,7.619,5.146,12.441v5.34c0,0.821-0.666,1.487-1.487,1.487h-10.684c-0.821,0-1.487-0.666-1.487-1.487v-5.34
					c0-1.101-0.372-2.009-1.136-2.773c-0.764-0.764-1.671-1.136-2.772-1.136c-1.096,0-1.991,0.369-2.738,1.128
					c-0.752,0.765-1.118,1.675-1.118,2.782v42.895c0,1.103,0.362,2,1.109,2.744c0.747,0.748,1.645,1.111,2.747,1.111
					c1.106,0,2.016-0.366,2.781-1.118c0.759-0.746,1.127-1.641,1.127-2.737v-5.393c0-0.821,0.666-1.487,1.487-1.487h10.684
					c0.821,0,1.487,0.666,1.487,1.487v5.393c0,4.823-1.732,9.001-5.149,12.418C325.577,729.779,321.4,731.512,316.578,731.512z
					 M316.578,656.403c-4.061,0-7.434,1.407-10.312,4.302c-2.88,2.897-4.281,6.28-4.281,10.345v42.895
					c0,4.062,1.399,7.437,4.278,10.316c2.88,2.879,6.254,4.278,10.315,4.278c4.061,0,7.435-1.399,10.314-4.278
					c2.879-2.879,4.278-6.254,4.278-10.316v-3.907h-7.71v3.907c0,1.909-0.679,3.544-2.017,4.858
					c-1.329,1.307-2.966,1.971-4.865,1.971c-1.904,0-3.536-0.667-4.85-1.98c-1.313-1.311-1.98-2.943-1.98-4.848V671.05
					c0-1.9,0.664-3.538,1.972-4.867c1.316-1.338,2.95-2.016,4.858-2.016c1.903,0,3.543,0.675,4.874,2.007
					c1.332,1.331,2.007,2.972,2.007,4.876v3.854h7.71v-3.854c0-4.065-1.401-7.448-4.281-10.345
					C324.011,657.81,320.638,656.403,316.578,656.403z"/>
			</g>
			<g>
				<path style="fill:#FFFFFF;" d="M350.434,659.656c3.143-3.16,6.931-4.74,11.366-4.74c4.434,0,8.224,1.58,11.366,4.74
					c3.142,3.16,4.713,6.958,4.713,11.394v42.894c0,4.435-1.571,8.224-4.713,11.367c-3.143,3.141-6.932,4.713-11.366,4.713
					c-4.435,0-8.223-1.572-11.366-4.713c-3.143-3.144-4.713-6.932-4.713-11.367V671.05
					C345.72,666.615,347.291,662.817,350.434,659.656z M365.623,667.225c-1.048-1.047-2.322-1.572-3.824-1.572
					c-1.501,0-2.767,0.524-3.797,1.572c-1.031,1.047-1.545,2.323-1.545,3.825v15.188v12.57v15.136c0,1.503,0.514,2.768,1.545,3.797
					c1.03,1.031,2.296,1.545,3.797,1.545c1.501,0,2.776-0.514,3.824-1.545c1.048-1.029,1.572-2.294,1.572-3.797v-15.136v-12.57
					V671.05C367.195,669.548,366.671,668.273,365.623,667.225z"/>
				<path style="fill:#43484E;" d="M361.799,731.512c-4.822,0-8.999-1.732-12.417-5.149c-3.417-3.417-5.149-7.595-5.149-12.418
					V671.05c0-4.822,1.732-9.008,5.146-12.441c3.417-3.436,7.595-5.179,12.42-5.179c4.825,0,9.004,1.742,12.42,5.179
					c3.414,3.433,5.146,7.619,5.146,12.441v42.895c0,4.823-1.732,9.001-5.149,12.418
					C370.799,729.779,366.622,731.512,361.799,731.512z M361.799,656.403c-4.06,0-7.433,1.407-10.311,4.302
					c-2.88,2.897-4.281,6.28-4.281,10.345v42.895c0,4.062,1.399,7.437,4.278,10.316c2.879,2.879,6.253,4.278,10.314,4.278
					c4.062,0,7.436-1.399,10.315-4.278c2.879-2.879,4.278-6.254,4.278-10.316V671.05c0-4.065-1.4-7.448-4.281-10.345
					C369.234,657.81,365.861,656.403,361.799,656.403z M361.799,720.773c-1.904,0-3.536-0.667-4.849-1.98
					c-1.313-1.311-1.98-2.943-1.98-4.848V671.05c0-1.9,0.663-3.538,1.972-4.867c1.315-1.338,2.95-2.016,4.857-2.016
					c1.903,0,3.544,0.675,4.875,2.007c1.332,1.331,2.007,2.972,2.007,4.876v42.895c0,1.909-0.679,3.544-2.017,4.858
					C365.336,720.11,363.699,720.773,361.799,720.773z M361.799,667.14c-1.095,0-1.991,0.369-2.737,1.128
					c-0.752,0.765-1.118,1.675-1.118,2.782v42.895c0,1.103,0.362,2,1.109,2.744c0.747,0.748,1.645,1.111,2.746,1.111
					c1.107,0,2.017-0.366,2.781-1.118c0.759-0.746,1.128-1.641,1.128-2.737V671.05c0-1.101-0.372-2.009-1.136-2.773
					C363.807,667.512,362.9,667.14,361.799,667.14z"/>
			</g>
			<g>
				<path style="fill:#FFFFFF;" d="M411.684,713.944l-8.066-24.145v40.225H392.88v-75.108h10.738l13.408,40.225l13.408-40.225
					h10.738v75.108h-10.738v-40.225l-8.014,24.145H411.684z"/>
				<path style="fill:#43484E;" d="M441.172,731.512h-10.738c-0.821,0-1.487-0.666-1.487-1.487v-31.026l-5.115,15.414
					c-0.202,0.608-0.77,1.019-1.411,1.019h-10.737c-0.64,0-1.207-0.409-1.41-1.016l-5.169-15.473v31.082
					c0,0.821-0.666,1.487-1.487,1.487H392.88c-0.821,0-1.487-0.666-1.487-1.487v-75.108c0-0.821,0.666-1.487,1.487-1.487h10.738
					c0.64,0,1.208,0.409,1.411,1.016l11.998,35.994l11.997-35.994c0.203-0.607,0.77-1.016,1.411-1.016h10.738
					c0.821,0,1.487,0.666,1.487,1.487v75.108C442.659,730.846,441.993,731.512,441.172,731.512z M431.921,728.538h7.765v-72.135
					h-8.18l-13.069,39.209c-0.203,0.607-0.77,1.016-1.411,1.016c-0.64,0-1.208-0.409-1.411-1.016l-13.069-39.209h-8.179v72.135
					h7.764v-38.739c0-0.729,0.529-1.35,1.248-1.467c0.725-0.119,1.418,0.305,1.649,0.996l7.727,23.13h8.593l7.675-23.127
					c0.23-0.692,0.927-1.12,1.649-1c0.72,0.117,1.25,0.738,1.25,1.468V728.538z"/>
			</g>
			<g>
				<path style="fill:#FFFFFF;" d="M467.852,730.025h-10.737v-75.108h10.737V730.025z"/>
				<path style="fill:#43484E;" d="M467.853,731.512h-10.737c-0.821,0-1.487-0.666-1.487-1.487v-75.108
					c0-0.821,0.666-1.487,1.487-1.487h10.737c0.821,0,1.487,0.666,1.487,1.487v75.108
					C469.34,730.846,468.674,731.512,467.853,731.512z M458.603,728.538h7.763v-72.135h-7.763V728.538z"/>
			</g>
			<g>
				<path style="fill:#FFFFFF;" d="M483.378,654.916h10.737l10.737,37.554v-37.554h10.738v75.108h-10.738l-10.737-37.554v37.554
					h-10.737V654.916z"/>
				<path style="fill:#43484E;" d="M515.589,731.512h-10.738c-0.664,0-1.247-0.44-1.43-1.078l-7.82-27.354v26.945
					c0,0.821-0.666,1.487-1.487,1.487h-10.737c-0.821,0-1.487-0.666-1.487-1.487v-75.108c0-0.821,0.666-1.487,1.487-1.487h10.737
					c0.664,0,1.247,0.44,1.43,1.078l7.82,27.354v-26.945c0-0.821,0.666-1.487,1.487-1.487h10.738c0.821,0,1.487,0.666,1.487,1.487
					v75.108C517.076,730.846,516.411,731.512,515.589,731.512z M505.973,728.538h8.13v-72.135h-7.765v36.067
					c0,0.741-0.546,1.369-1.281,1.472c-0.736,0.1-1.432-0.351-1.636-1.064l-10.429-36.476h-8.128v72.135h7.763V692.47
					c0-0.741,0.546-1.369,1.281-1.472c0.724-0.107,1.432,0.35,1.636,1.064L505.973,728.538z"/>
			</g>
			<g>
				<path style="fill:#FFFFFF;" d="M534.831,659.656c3.143-3.16,6.931-4.74,11.366-4.74c4.434,0,8.223,1.58,11.366,4.74
					c3.143,3.16,4.713,6.958,4.713,11.394h-10.684c0-1.502-0.524-2.777-1.572-3.825s-2.322-1.572-3.824-1.572
					s-2.767,0.524-3.797,1.572c-1.031,1.047-1.545,2.323-1.545,3.825v42.894c0,1.503,0.514,2.768,1.545,3.797
					c1.03,1.031,2.296,1.545,3.797,1.545s2.776-0.514,3.824-1.545c1.047-1.029,1.572-2.294,1.572-3.797v-16.078h-5.395v-10.738
					h16.079v26.816c0,4.435-1.571,8.224-4.713,11.367c-3.143,3.141-6.932,4.713-11.366,4.713c-4.435,0-8.224-1.572-11.366-4.713
					c-3.143-3.144-4.713-6.932-4.713-11.367V671.05C530.118,666.615,531.689,662.817,534.831,659.656z"/>
				<path style="fill:#43484E;" d="M546.197,731.512c-4.822,0-8.999-1.732-12.417-5.149c-3.417-3.417-5.149-7.595-5.149-12.418
					V671.05c0-4.822,1.732-9.008,5.146-12.441c3.417-3.436,7.595-5.179,12.42-5.179c4.825,0,9.004,1.742,12.421,5.179
					c3.414,3.433,5.146,7.619,5.146,12.441c0,0.821-0.666,1.487-1.487,1.487h-10.684c-0.821,0-1.487-0.666-1.487-1.487
					c0-1.101-0.372-2.009-1.136-2.773c-0.764-0.764-1.671-1.136-2.773-1.136c-1.095,0-1.991,0.369-2.737,1.128
					c-0.752,0.765-1.118,1.675-1.118,2.782v42.895c0,1.103,0.362,2,1.109,2.744c0.747,0.748,1.645,1.111,2.746,1.111
					c1.107,0,2.017-0.366,2.781-1.118c0.759-0.746,1.127-1.641,1.127-2.737v-14.592h-3.909c-0.821,0-1.487-0.666-1.487-1.487
					v-10.737c0-0.821,0.666-1.487,1.487-1.487h16.08c0.821,0,1.487,0.666,1.487,1.487v26.816c0,4.823-1.732,9.001-5.149,12.418
					C555.197,729.779,551.02,731.512,546.197,731.512z M546.197,656.403c-4.06,0-7.433,1.407-10.311,4.302
					c-2.88,2.897-4.281,6.28-4.281,10.345v42.895c0,4.062,1.399,7.437,4.278,10.316c2.879,2.879,6.253,4.278,10.314,4.278
					c4.062,0,7.436-1.399,10.315-4.278c2.879-2.879,4.278-6.254,4.278-10.316v-25.329h-13.106v7.764h3.909
					c0.821,0,1.487,0.666,1.487,1.487v16.079c0,1.909-0.679,3.544-2.017,4.858c-1.329,1.307-2.966,1.971-4.866,1.971
					c-1.904,0-3.536-0.667-4.849-1.98c-1.313-1.311-1.98-2.943-1.98-4.848V671.05c0-1.9,0.664-3.538,1.972-4.867
					c1.315-1.338,2.95-2.016,4.857-2.016c1.903,0,3.544,0.675,4.875,2.007c0.971,0.971,1.594,2.107,1.859,3.389h7.793
					c-0.306-3.413-1.694-6.322-4.215-8.858C553.631,657.81,550.258,656.403,546.197,656.403z"/>
			</g>
			<g>
				<path style="fill:#FFFFFF;" d="M611.135,708.551v5.393c0,1.503,0.524,2.768,1.572,3.797c1.048,1.031,2.321,1.545,3.823,1.545
					s2.767-0.514,3.798-1.545c1.029-1.029,1.544-2.294,1.544-3.797v-10.736c0-1.501-0.516-2.768-1.544-3.797
					c-1.031-1.031-2.297-1.545-3.798-1.545c-4.818-0.035-8.834-1.835-12.046-5.396c-2.724-3.073-4.085-6.652-4.085-10.738V671.05
					c0-4.435,1.58-8.233,4.74-11.394c3.16-3.16,6.957-4.74,11.391-4.74c4.434,0,8.223,1.58,11.366,4.74
					c3.143,3.16,4.714,6.958,4.714,11.394v5.34h-0.996h-9.742v-5.34c0-1.502-0.516-2.777-1.544-3.825
					c-1.031-1.047-2.297-1.572-3.798-1.572s-2.775,0.524-3.823,1.572s-1.572,2.323-1.572,3.825v10.683
					c0,1.503,0.524,2.777,1.572,3.824c1.048,1.049,2.321,1.572,3.823,1.572c4.784,0,8.782,1.782,11.995,5.342
					c2.723,3.073,4.085,6.652,4.085,10.738v10.736c0,4.435-1.572,8.224-4.714,11.367c-3.143,3.141-6.932,4.713-11.366,4.713
					c-4.434,0-8.231-1.572-11.391-4.713c-3.16-3.144-4.74-6.932-4.74-11.367v-5.393H611.135z"/>
				<path style="fill:#43484E;" d="M616.53,731.512c-4.82,0-9.005-1.732-12.44-5.146c-3.436-3.418-5.179-7.597-5.179-12.421v-5.393
					c0-0.821,0.666-1.487,1.487-1.487h10.737c0.821,0,1.487,0.666,1.487,1.487v5.393c0,1.096,0.369,1.992,1.127,2.736
					c0.765,0.753,1.675,1.119,2.781,1.119c1.101,0,2-0.363,2.746-1.109c0.746-0.746,1.109-1.644,1.109-2.746v-10.736
					c0-1.101-0.363-1.999-1.109-2.746c-0.747-0.747-1.645-1.11-2.746-1.11c-5.24-0.038-9.661-2.018-13.151-5.886
					c-2.967-3.348-4.468-7.292-4.468-11.734V671.05c0-4.824,1.741-9.01,5.176-12.444c3.434-3.435,7.621-5.176,12.443-5.176
					c4.825,0,9.003,1.742,12.42,5.179c3.416,3.434,5.147,7.62,5.147,12.441v5.34c0,0.821-0.666,1.487-1.487,1.487h-10.738
					c-0.821,0-1.487-0.666-1.487-1.487v-5.34c0-1.107-0.366-2.017-1.118-2.783c-0.746-0.758-1.641-1.127-2.737-1.127
					c-1.101,0-2.007,0.372-2.772,1.136c-0.764,0.765-1.136,1.673-1.136,2.773v10.683c0,1.101,0.372,2.008,1.136,2.773
					c0.765,0.764,1.671,1.136,2.772,1.136c5.199,0,9.606,1.962,13.099,5.833c2.968,3.349,4.469,7.294,4.469,11.734v10.736
					c0,4.822-1.733,9-5.15,12.418C625.529,729.779,621.352,731.512,616.53,731.512z M601.885,710.038v3.907
					c0,4.06,1.407,7.434,4.302,10.313c2.897,2.88,6.281,4.281,10.343,4.281c4.061,0,7.435-1.399,10.314-4.278
					c2.879-2.88,4.279-6.254,4.279-10.316v-10.736c0-3.744-1.214-6.934-3.711-9.752c-2.937-3.254-6.5-4.841-10.882-4.841
					c-1.904,0-3.544-0.675-4.875-2.007c-1.331-1.331-2.007-2.972-2.007-4.875V671.05c0-1.903,0.675-3.543,2.007-4.876
					c1.332-1.332,2.972-2.007,4.875-2.007c1.907,0,3.541,0.678,4.858,2.016c1.308,1.332,1.971,2.969,1.971,4.867v3.854h7.765v-3.854
					c0-4.063-1.4-7.447-4.282-10.345c-2.878-2.895-6.251-4.302-10.311-4.302c-4.061,0-7.444,1.408-10.34,4.305
					c-2.897,2.897-4.305,6.279-4.305,10.342v10.683c0,3.745,1.214,6.935,3.711,9.751c2.94,3.259,6.523,4.863,10.945,4.895
					c1.892,0,3.523,0.666,4.838,1.981c1.314,1.313,1.98,2.945,1.98,4.848v10.736c0,1.904-0.666,3.535-1.98,4.848
					c-1.314,1.314-2.945,1.98-4.849,1.98c-1.899,0-3.536-0.664-4.866-1.972c-1.338-1.314-2.016-2.948-2.016-4.857v-3.907H601.885z"
					/>
			</g>
			<g>
				<path style="fill:#FFFFFF;" d="M650.176,659.656c3.143-3.16,6.931-4.74,11.366-4.74c4.434,0,8.224,1.58,11.366,4.74
					c3.143,3.16,4.713,6.958,4.713,11.394v42.894c0,4.435-1.571,8.224-4.713,11.367c-3.143,3.141-6.932,4.713-11.366,4.713
					c-4.435,0-8.223-1.572-11.366-4.713c-3.143-3.144-4.713-6.932-4.713-11.367V671.05
					C645.463,666.615,647.033,662.817,650.176,659.656z M665.366,667.225c-1.047-1.047-2.323-1.572-3.824-1.572
					c-1.501,0-2.767,0.524-3.797,1.572c-1.031,1.047-1.545,2.323-1.545,3.825v15.188v12.57v15.136c0,1.503,0.514,2.768,1.545,3.797
					c1.03,1.031,2.296,1.545,3.797,1.545c1.501,0,2.776-0.514,3.824-1.545c1.047-1.029,1.572-2.294,1.572-3.797v-15.136v-12.57
					V671.05C666.937,669.548,666.413,668.273,665.366,667.225z"/>
				<path style="fill:#43484E;" d="M661.542,731.512c-4.822,0-9-1.732-12.417-5.149c-3.417-3.417-5.149-7.595-5.149-12.418V671.05
					c0-4.822,1.732-9.008,5.146-12.441c3.417-3.436,7.595-5.179,12.42-5.179c4.825,0,9.004,1.742,12.42,5.179
					c3.414,3.433,5.146,7.619,5.146,12.441v42.895c0,4.823-1.732,9.001-5.149,12.418
					C670.542,729.779,666.364,731.512,661.542,731.512z M661.542,656.403c-4.061,0-7.434,1.407-10.311,4.302
					c-2.88,2.897-4.281,6.28-4.281,10.345v42.895c0,4.062,1.399,7.437,4.278,10.316c2.879,2.879,6.253,4.278,10.314,4.278
					c4.062,0,7.436-1.399,10.315-4.278c2.879-2.879,4.278-6.254,4.278-10.316V671.05c0-4.065-1.401-7.448-4.281-10.345
					C668.976,657.81,665.603,656.403,661.542,656.403z M661.542,720.773c-1.904,0-3.536-0.667-4.849-1.98
					c-1.313-1.311-1.98-2.943-1.98-4.848V671.05c0-1.9,0.664-3.538,1.972-4.867c1.316-1.338,2.95-2.016,4.857-2.016
					c1.903,0,3.544,0.675,4.875,2.007c1.332,1.331,2.007,2.972,2.007,4.876v42.895c0,1.909-0.679,3.544-2.017,4.858
					C665.079,720.11,663.442,720.773,661.542,720.773z M661.542,667.14c-1.096,0-1.991,0.369-2.737,1.128
					c-0.752,0.765-1.118,1.675-1.118,2.782v42.895c0,1.103,0.362,2,1.109,2.744c0.747,0.748,1.645,1.111,2.747,1.111
					c1.107,0,2.017-0.366,2.781-1.118c0.759-0.746,1.128-1.641,1.128-2.737V671.05c0-1.101-0.372-2.009-1.136-2.773
					C663.55,667.512,662.642,667.14,661.542,667.14z"/>
			</g>
			<g>
				<path style="fill:#FFFFFF;" d="M696.707,659.656c3.143-3.16,6.931-4.74,11.366-4.74c4.434,0,8.223,1.58,11.366,4.74
					c3.143,3.16,4.713,6.958,4.713,11.394v42.894c0,4.435-1.571,8.224-4.713,11.367c-3.143,3.141-6.932,4.713-11.366,4.713
					c-4.435,0-8.224-1.572-11.366-4.713c-3.143-3.144-4.713-6.932-4.713-11.367V671.05
					C691.994,666.615,693.565,662.817,696.707,659.656z M711.897,667.225c-1.047-1.047-2.322-1.572-3.824-1.572
					c-1.501,0-2.767,0.524-3.797,1.572c-1.031,1.047-1.545,2.323-1.545,3.825v15.188v12.57v15.136c0,1.503,0.514,2.768,1.545,3.797
					c1.03,1.031,2.296,1.545,3.797,1.545c1.501,0,2.776-0.514,3.824-1.545c1.047-1.029,1.572-2.294,1.572-3.797v-15.136v-12.57
					V671.05C713.469,669.548,712.945,668.273,711.897,667.225z"/>
				<path style="fill:#43484E;" d="M708.073,731.512c-4.822,0-9-1.732-12.417-5.149c-3.417-3.417-5.149-7.595-5.149-12.418V671.05
					c0-4.822,1.732-9.008,5.146-12.441c3.417-3.436,7.595-5.179,12.42-5.179c4.825,0,9.004,1.742,12.42,5.179
					c3.414,3.433,5.146,7.619,5.146,12.441v42.895c0,4.823-1.732,9.001-5.149,12.418
					C717.073,729.779,712.896,731.512,708.073,731.512z M708.073,656.403c-4.061,0-7.434,1.407-10.311,4.302
					c-2.88,2.897-4.281,6.28-4.281,10.345v42.895c0,4.062,1.399,7.437,4.278,10.316c2.879,2.879,6.253,4.278,10.314,4.278
					c4.062,0,7.436-1.399,10.315-4.278c2.879-2.879,4.278-6.254,4.278-10.316V671.05c0-4.065-1.4-7.448-4.281-10.345
					C715.507,657.81,712.134,656.403,708.073,656.403z M708.073,720.773c-1.904,0-3.536-0.667-4.849-1.98
					c-1.313-1.311-1.98-2.943-1.98-4.848V671.05c0-1.9,0.664-3.538,1.972-4.867c1.315-1.338,2.95-2.016,4.857-2.016
					c1.903,0,3.544,0.675,4.875,2.007c1.332,1.331,2.007,2.972,2.007,4.876v42.895c0,1.909-0.679,3.544-2.017,4.858
					C711.61,720.11,709.973,720.773,708.073,720.773z M708.073,667.14c-1.096,0-1.991,0.369-2.737,1.128
					c-0.752,0.765-1.118,1.675-1.118,2.782v42.895c0,1.103,0.362,2,1.109,2.744c0.747,0.748,1.645,1.111,2.746,1.111
					c1.107,0,2.017-0.366,2.781-1.118c0.759-0.746,1.128-1.641,1.128-2.737V671.05c0-1.101-0.372-2.009-1.136-2.773
					C710.081,667.512,709.174,667.14,708.073,667.14z"/>
			</g>
			<g>
				<path style="fill:#FFFFFF;" d="M738.735,654.916h10.737l10.737,37.554v-37.554h10.738v75.108h-10.738l-10.737-37.554v37.554
					h-10.737V654.916z"/>
				<path style="fill:#43484E;" d="M770.947,731.512h-10.737c-0.664,0-1.247-0.44-1.43-1.078l-7.82-27.354v26.945
					c0,0.821-0.666,1.487-1.487,1.487h-10.737c-0.821,0-1.487-0.666-1.487-1.487v-75.108c0-0.821,0.666-1.487,1.487-1.487h10.737
					c0.664,0,1.247,0.44,1.43,1.078l7.82,27.354v-26.945c0-0.821,0.666-1.487,1.487-1.487h10.737c0.821,0,1.487,0.666,1.487,1.487
					v75.108C772.434,730.846,771.768,731.512,770.947,731.512z M761.331,728.538h8.129v-72.135h-7.764v36.067
					c0,0.741-0.546,1.369-1.281,1.472c-0.735,0.1-1.432-0.351-1.636-1.064l-10.429-36.476h-8.128v72.135h7.763V692.47
					c0-0.741,0.546-1.369,1.281-1.472c0.725-0.107,1.431,0.35,1.636,1.064L761.331,728.538z"/>
			</g>
		</g>
	</g>
	<g>
		<path style="fill:#43484E;" d="M407.921,757.596h-99.693c-0.821,0-1.487-0.666-1.487-1.487s0.666-1.487,1.487-1.487h99.693
			c0.821,0,1.487,0.666,1.487,1.487S408.742,757.596,407.921,757.596z"/>
	</g>
	<g>
		<path style="fill:#43484E;" d="M518.166,776.196H308.228c-0.821,0-1.487-0.666-1.487-1.487s0.666-1.487,1.487-1.487h209.938
			c0.821,0,1.487,0.666,1.487,1.487S518.987,776.196,518.166,776.196z"/>
	</g>
	<g>
		<path style="fill:#43484E;" d="M443.529,757.596h-23.926c-0.821,0-1.487-0.666-1.487-1.487s0.666-1.487,1.487-1.487h23.926
			c0.821,0,1.487,0.666,1.487,1.487S444.35,757.596,443.529,757.596z"/>
	</g>
	<g>
		<path style="fill:#43484E;" d="M774.535,743.555h-23.925c-0.821,0-1.487-0.666-1.487-1.487c0-0.821,0.666-1.487,1.487-1.487
			h23.925c0.821,0,1.487,0.666,1.487,1.487C776.022,742.89,775.356,743.555,774.535,743.555z"/>
	</g>
	<g>
		<path style="fill:#43484E;" d="M774.535,752.884h-11.963c-0.821,0-1.487-0.666-1.487-1.487s0.666-1.487,1.487-1.487h11.963
			c0.821,0,1.487,0.666,1.487,1.487S775.356,752.884,774.535,752.884z"/>
	</g>
	<g>
		<path style="fill:#43484E;" d="M460.991,757.596h-8.429c-0.821,0-1.487-0.666-1.487-1.487s0.666-1.487,1.487-1.487h8.429
			c0.821,0,1.487,0.666,1.487,1.487S461.812,757.596,460.991,757.596z"/>
	</g>
	<g>
		<path style="fill:#43484E;" d="M919.291,671.666h-39.852c-1.642,0-2.974-1.332-2.974-2.974V389.677
			c0-1.642,1.332-2.974,2.974-2.974h39.852c1.642,0,2.974,1.331,2.974,2.974v279.015
			C922.264,670.334,920.933,671.666,919.291,671.666z M882.412,665.719h33.905V392.651h-33.905V665.719z"/>
	</g>
	<g>
		<g>
			<path style="fill:#43484E;" d="M919.203,512.605h-39.765c-1.203,0-2.287-0.725-2.747-1.836c-0.46-1.111-0.206-2.39,0.645-3.24
				l19.883-19.883c1.115-1.115,3.09-1.115,4.205,0l19.882,19.883c0.851,0.85,1.105,2.129,0.645,3.241
				C921.49,511.881,920.406,512.605,919.203,512.605z M886.618,506.658h25.407l-12.703-12.704L886.618,506.658z"/>
		</g>
		<g>
			<path style="fill:#43484E;" d="M899.321,492.722c-0.761,0-1.522-0.29-2.103-0.871l-19.883-19.882
				c-0.851-0.85-1.105-2.129-0.645-3.24c0.46-1.112,1.544-1.836,2.747-1.836h39.765c1.203,0,2.287,0.724,2.747,1.836
				c0.46,1.111,0.206,2.39-0.645,3.24l-19.882,19.882C900.844,492.432,900.082,492.722,899.321,492.722z M886.618,472.84
				l12.704,12.703l12.703-12.703H886.618z"/>
		</g>
	</g>
	<g>
		<g>
			<path style="fill:#43484E;" d="M919.203,552.37h-39.765c-1.203,0-2.287-0.725-2.747-1.836c-0.46-1.111-0.206-2.39,0.645-3.24
				l19.883-19.882c1.16-1.162,3.043-1.162,4.205,0l19.882,19.882c0.851,0.85,1.105,2.129,0.645,3.24
				C921.49,551.646,920.406,552.37,919.203,552.37z M886.618,546.423h25.406l-12.703-12.703L886.618,546.423z"/>
		</g>
		<g>
			<path style="fill:#43484E;" d="M899.321,532.488c-0.788,0-1.545-0.314-2.103-0.871l-19.883-19.883
				c-0.851-0.85-1.105-2.129-0.645-3.24c0.46-1.112,1.544-1.836,2.747-1.836h39.765c1.203,0,2.287,0.724,2.747,1.835
				c0.46,1.112,0.206,2.391-0.645,3.241l-19.882,19.883C900.866,532.174,900.11,532.488,899.321,532.488z M886.618,512.605
				l12.704,12.703l12.703-12.703H886.618z"/>
		</g>
	</g>
	<g>
		<g>
			<path style="fill:#43484E;" d="M919.203,592.136h-39.765c-1.203,0-2.287-0.725-2.747-1.836c-0.46-1.111-0.206-2.39,0.645-3.24
				l19.883-19.882c1.16-1.162,3.043-1.162,4.205,0l19.882,19.882c0.851,0.85,1.105,2.129,0.645,3.24
				C921.49,591.411,920.406,592.136,919.203,592.136z M886.618,586.188h25.406l-12.703-12.703L886.618,586.188z"/>
		</g>
		<g>
			<path style="fill:#43484E;" d="M899.321,572.253c-0.788,0-1.545-0.314-2.103-0.871l-19.883-19.883
				c-0.851-0.85-1.105-2.129-0.645-3.24c0.46-1.112,1.544-1.836,2.747-1.836h39.765c1.203,0,2.287,0.725,2.747,1.836
				c0.46,1.111,0.206,2.39-0.645,3.24l-19.882,19.883C900.866,571.94,900.11,572.253,899.321,572.253z M886.618,552.37
				l12.704,12.703l12.703-12.703H886.618z"/>
		</g>
	</g>
	<g>
		<g>
			<path style="fill:#43484E;" d="M919.203,631.901h-39.765c-1.203,0-2.287-0.725-2.747-1.836c-0.46-1.111-0.206-2.39,0.645-3.24
				l19.883-19.882c1.16-1.162,3.043-1.162,4.205,0l19.882,19.882c0.851,0.85,1.105,2.129,0.645,3.24
				C921.49,631.176,920.406,631.901,919.203,631.901z M886.618,625.953h25.406l-12.703-12.703L886.618,625.953z"/>
		</g>
		<g>
			<path style="fill:#43484E;" d="M899.321,612.019c-0.788,0-1.545-0.314-2.103-0.871l-19.883-19.883
				c-0.851-0.85-1.105-2.129-0.645-3.24c0.46-1.112,1.544-1.836,2.747-1.836h39.765c1.203,0,2.287,0.725,2.747,1.835
				c0.46,1.112,0.206,2.391-0.645,3.241l-19.882,19.883C900.866,611.705,900.11,612.019,899.321,612.019z M886.618,592.136
				l12.704,12.704l12.703-12.704H886.618z"/>
		</g>
	</g>
	<g>
		<g>
			<path style="fill:#43484E;" d="M919.203,671.666h-39.765c-1.203,0-2.287-0.724-2.747-1.836c-0.46-1.111-0.206-2.39,0.645-3.24
				l19.883-19.882c1.16-1.162,3.043-1.162,4.205,0l19.882,19.882c0.851,0.85,1.105,2.129,0.645,3.24
				C921.49,670.942,920.406,671.666,919.203,671.666z M886.618,665.719h25.406l-12.703-12.703L886.618,665.719z"/>
		</g>
		<g>
			<path style="fill:#43484E;" d="M899.321,651.784c-0.788,0-1.545-0.314-2.103-0.871l-19.883-19.883
				c-0.851-0.85-1.105-2.129-0.645-3.24c0.46-1.112,1.544-1.836,2.747-1.836h39.765c1.203,0,2.287,0.725,2.747,1.836
				c0.46,1.111,0.206,2.39-0.645,3.24l-19.882,19.883C900.866,651.47,900.11,651.784,899.321,651.784z M886.618,631.901
				l12.704,12.704l12.703-12.704H886.618z"/>
		</g>
	</g>
	<g>
		<g>
			<path style="fill:#43484E;" d="M919.203,472.84h-39.765c-1.203,0-2.287-0.725-2.747-1.836c-0.46-1.111-0.206-2.39,0.645-3.24
				l19.883-19.883c1.115-1.115,3.09-1.115,4.205,0l19.882,19.883c0.851,0.85,1.105,2.129,0.645,3.24
				C921.49,472.115,920.406,472.84,919.203,472.84z M886.618,466.893h25.407l-12.703-12.704L886.618,466.893z"/>
		</g>
		<g>
			<path style="fill:#43484E;" d="M899.321,452.957c-0.761,0-1.522-0.29-2.103-0.871l-19.883-19.882
				c-0.851-0.85-1.105-2.129-0.645-3.24c0.46-1.112,1.544-1.836,2.747-1.836h39.765c1.203,0,2.287,0.724,2.747,1.836
				c0.46,1.111,0.206,2.39-0.645,3.24l-19.882,19.882C900.844,452.667,900.082,452.957,899.321,452.957z M886.618,433.075
				l12.704,12.703l12.703-12.703H886.618z"/>
		</g>
	</g>
	<g>
		<g>
			<path style="fill:#43484E;" d="M919.203,432.416h-39.765c-1.203,0-2.287-0.725-2.747-1.836c-0.46-1.111-0.206-2.39,0.645-3.24
				l19.883-19.882c1.16-1.162,3.043-1.162,4.205,0l19.882,19.882c0.851,0.85,1.105,2.129,0.645,3.24
				C921.49,431.692,920.406,432.416,919.203,432.416z M886.618,426.469h25.406l-12.703-12.703L886.618,426.469z"/>
		</g>
		<g>
			<path style="fill:#43484E;" d="M899.321,412.534c-0.788,0-1.545-0.314-2.103-0.871l-19.883-19.883
				c-0.851-0.85-1.105-2.129-0.645-3.24c0.46-1.112,1.544-1.836,2.747-1.836h39.765c1.203,0,2.287,0.724,2.747,1.835
				c0.46,1.112,0.206,2.391-0.645,3.241l-19.882,19.883C900.866,412.22,900.11,412.534,899.321,412.534z M886.618,392.651
				l12.704,12.704l12.703-12.704H886.618z"/>
		</g>
	</g>
	<g>
		<g>
			<path style="fill:#43484E;" d="M919.203,352.74h-39.765c-1.203,0-2.287-0.724-2.747-1.836c-0.46-1.111-0.206-2.39,0.645-3.24
				l19.883-19.883c1.115-1.115,3.09-1.115,4.205,0l19.882,19.883c0.851,0.85,1.105,2.129,0.645,3.241
				C921.49,352.015,920.406,352.74,919.203,352.74z M886.618,346.793h25.407l-12.703-12.704L886.618,346.793z"/>
		</g>
		<g>
			<path style="fill:#43484E;" d="M899.321,332.857c-0.761,0-1.522-0.29-2.103-0.871l-19.883-19.882
				c-0.851-0.85-1.105-2.129-0.645-3.24c0.46-1.112,1.544-1.836,2.747-1.836h39.765c1.203,0,2.287,0.725,2.747,1.836
				c0.46,1.111,0.206,2.39-0.645,3.24l-19.882,19.882C900.844,332.567,900.082,332.857,899.321,332.857z M886.618,312.975
				l12.704,12.703l12.703-12.703H886.618z"/>
		</g>
	</g>
	<g>
		<g>
			<path style="fill:#43484E;" d="M919.203,392.505h-39.765c-1.203,0-2.287-0.724-2.747-1.836c-0.46-1.111-0.206-2.39,0.645-3.24
				l19.883-19.883c1.115-1.115,3.09-1.115,4.205,0l19.882,19.883c0.851,0.85,1.105,2.129,0.645,3.24
				C921.49,391.781,920.406,392.505,919.203,392.505z M886.618,386.558h25.407l-12.703-12.704L886.618,386.558z"/>
		</g>
		<g>
			<path style="fill:#43484E;" d="M899.321,372.622c-0.761,0-1.522-0.29-2.103-0.871l-19.883-19.882
				c-0.851-0.85-1.105-2.129-0.645-3.24c0.46-1.112,1.544-1.836,2.747-1.836h39.765c1.203,0,2.287,0.725,2.747,1.836
				c0.46,1.111,0.206,2.39-0.645,3.24l-19.882,19.882C900.844,372.332,900.082,372.622,899.321,372.622z M886.618,352.74
				l12.704,12.703l12.703-12.703H886.618z"/>
		</g>
	</g>
	<g>
		<path style="fill:#43484E;" d="M949.43,871.199H849.212c-1.642,0-2.974-1.332-2.974-2.974v-75.474
			c0-0.237,0.028-0.473,0.084-0.704l30.226-124.059c0.325-1.332,1.518-2.269,2.889-2.269h39.765c1.371,0,2.565,0.937,2.889,2.269
			l30.226,124.059c0.056,0.231,0.084,0.467,0.084,0.704v75.474C952.403,869.868,951.072,871.199,949.43,871.199z M852.186,865.252
			h94.27v-72.143l-29.589-121.442h-35.093l-29.589,121.442V865.252z"/>
	</g>
	<g>
		<path style="fill:#43484E;" d="M919.203,871.199c-1.642,0-2.974-1.332-2.974-2.974V668.692c0-1.642,1.332-2.974,2.974-2.974
			c1.642,0,2.974,1.331,2.974,2.974v199.533C922.177,869.868,920.846,871.199,919.203,871.199z"/>
	</g>
	<g>
		<path style="fill:#43484E;" d="M879.438,871.199c-1.642,0-2.974-1.332-2.974-2.974V668.692c0-1.642,1.332-2.974,2.974-2.974
			c1.642,0,2.974,1.331,2.974,2.974v199.533C882.412,869.868,881.08,871.199,879.438,871.199z"/>
	</g>
	<g>
		<path style="fill:#43484E;" d="M949.459,871.199c-0.01,0-0.02,0-0.03,0H849.212c-1.279,0-2.415-0.818-2.82-2.031
			c-0.405-1.212,0.01-2.549,1.032-3.319l46.955-35.362l-46.955-35.361c-1.021-0.77-1.437-2.106-1.032-3.318
			c0.406-1.213,1.541-2.031,2.82-2.031H949.43c1.279,0,2.415,0.817,2.82,2.031c0.405,1.212-0.01,2.549-1.032,3.318l-46.955,35.361
			l46.71,35.178c0.873,0.518,1.459,1.471,1.459,2.56C952.433,869.868,951.102,871.199,949.459,871.199z M858.104,865.252h82.434
			l-41.217-31.041L858.104,865.252z M858.104,795.725l41.217,31.041l41.217-31.041H858.104z"/>
	</g>
	<g>
		<g>
			<path style="fill:#90D5F5;" d="M228.667,446.436c5.841,0.205,10.742-4.364,10.947-10.205c0.205-5.841-4.365-10.742-10.205-10.947
				c-5.841-0.205-10.742,4.365-10.947,10.205C218.257,441.33,222.826,446.231,228.667,446.436z M229.218,430.695
				c2.853,0.1,5.084,2.493,4.984,5.346c-0.1,2.853-2.493,5.084-5.346,4.984c-2.853-0.1-5.084-2.493-4.984-5.346
				C223.972,432.827,226.366,430.595,229.218,430.695z"/>
			<path style="fill:#43484E;" d="M229.044,447.929L229.044,447.929c-0.143,0-0.286-0.002-0.43-0.007
				c-3.221-0.113-6.207-1.474-8.405-3.832c-2.198-2.358-3.347-5.431-3.234-8.653c0.234-6.673,5.773-11.871,12.485-11.639
				c3.221,0.113,6.206,1.474,8.405,3.832c2.198,2.358,3.347,5.431,3.234,8.653C240.87,442.813,235.575,447.929,229.044,447.929z
				 M229.031,426.764c-4.921,0-8.911,3.855-9.083,8.777c-0.085,2.428,0.78,4.744,2.437,6.521c1.657,1.777,3.907,2.802,6.334,2.887
				l0.325,0.006c4.921,0,8.911-3.855,9.083-8.777c0.085-2.428-0.781-4.744-2.437-6.521c-1.657-1.776-3.907-2.802-6.334-2.887
				L229.031,426.764z M229.04,442.515l-0.235-0.004c-3.668-0.129-6.547-3.218-6.419-6.885c0.126-3.601,3.046-6.421,6.648-6.421
				l0.237,0.004c3.666,0.129,6.546,3.217,6.418,6.884C235.562,439.694,232.642,442.515,229.04,442.515z M229.034,432.179
				c-1.991,0-3.606,1.56-3.676,3.552c-0.071,2.028,1.521,3.737,3.55,3.808c0.001,0,0.003,0,0.004,0
				c2.121,0.001,3.734-1.559,3.804-3.55c0.071-2.028-1.522-3.737-3.55-3.808L229.034,432.179z"/>
		</g>
		<g>
			<path style="fill:#90D5F5;" d="M198.614,439.458l8.246,0.289c0.485,2.656,1.437,5.153,2.77,7.405l-6.037,5.628
				c-1.335,1.244-1.408,3.335-0.164,4.67l2.102,2.255c1.244,1.335,3.335,1.408,4.67,0.164l6.037-5.628l-0.001,0
				c2.152,1.488,4.577,2.613,7.193,3.282l-0.289,8.246c-0.064,1.824,1.363,3.354,3.187,3.418l3.08,0.108
				c1.824,0.064,3.354-1.363,3.418-3.186l0.289-8.246c2.656-0.485,5.154-1.437,7.405-2.771l-0.001,0l5.628,6.037
				c1.244,1.335,3.335,1.408,4.67,0.164l2.254-2.102c1.335-1.244,1.408-3.335,0.164-4.67l-5.628-6.037
				c1.488-2.152,2.612-4.577,3.282-7.192l8.245,0.289c1.824,0.064,3.354-1.363,3.418-3.187l0.108-3.08
				c0.064-1.824-1.363-3.354-3.186-3.418l-8.245-0.289c-0.485-2.656-1.437-5.153-2.77-7.405l6.037-5.628
				c1.335-1.244,1.408-3.335,0.164-4.67l-2.102-2.254c-1.244-1.335-3.335-1.408-4.67-0.164l-6.037,5.628
				c-2.152-1.488-4.577-2.612-7.192-3.282l0.289-8.245c0.064-1.824-1.363-3.354-3.186-3.418l-3.08-0.108
				c-1.824-0.064-3.354,1.363-3.418,3.186l-0.289,8.246c-2.656,0.485-5.154,1.437-7.404,2.77l-5.628-6.037
				c-1.244-1.335-3.335-1.408-4.67-0.164l-2.254,2.102c-1.335,1.244-1.408,3.335-0.164,4.67l5.628,6.037
				c-1.488,2.152-2.612,4.577-3.282,7.192l-8.245-0.289c-1.824-0.064-3.354,1.363-3.418,3.187l-0.108,3.08
				C195.363,437.864,196.79,439.394,198.614,439.458z M229.565,420.815c8.208,0.288,14.628,7.174,14.34,15.382
				s-7.174,14.628-15.382,14.34s-14.628-7.174-14.34-15.382C214.471,426.947,221.357,420.527,229.565,420.815z"/>
			<path style="fill:#43484E;" d="M229.526,470.782c-0.017,0-0.152-0.002-0.17-0.003l-3.08-0.108
				c-2.64-0.093-4.713-2.316-4.62-4.956l0.248-7.08c-1.934-0.6-3.777-1.441-5.505-2.513l-5.184,4.834
				c-0.891,0.83-2.05,1.286-3.266,1.286c-0.001,0-0.001,0-0.001,0c-1.325,0-2.603-0.555-3.505-1.525l-2.102-2.253
				c-1.801-1.933-1.695-4.97,0.237-6.772l5.184-4.833c-0.947-1.796-1.657-3.694-2.121-5.666l-7.081-0.248
				c-1.279-0.045-2.464-0.585-3.337-1.521c-0.873-0.937-1.329-2.156-1.284-3.435l0.108-3.08c0.091-2.593,2.193-4.623,4.786-4.623
				c0.017,0,0.153,0.002,0.17,0.003l7.081,0.248c0.6-1.935,1.442-3.778,2.512-5.505l-4.834-5.184
				c-0.873-0.936-1.329-2.157-1.284-3.435c0.045-1.279,0.585-2.464,1.522-3.337l2.254-2.102c1.861-1.732,5.039-1.62,6.772,0.238
				l4.833,5.184c1.796-0.948,3.695-1.658,5.666-2.121l0.248-7.081c0.091-2.592,2.193-4.624,4.786-4.624
				c0.017,0,0.152,0.002,0.17,0.003l3.08,0.108c1.278,0.045,2.464,0.585,3.337,1.522c0.872,0.936,1.328,2.155,1.284,3.435
				l-0.248,7.08c1.935,0.6,3.779,1.442,5.505,2.513l5.184-4.833c1.861-1.732,5.041-1.62,6.772,0.237l2.102,2.254
				c1.801,1.933,1.695,4.971-0.237,6.772l-5.185,4.833c0.947,1.797,1.657,3.695,2.121,5.666l7.081,0.248
				c2.64,0.093,4.713,2.316,4.62,4.956l-0.108,3.081c-0.091,2.592-2.193,4.623-4.786,4.623c-0.017,0-0.152-0.002-0.17-0.003
				l-7.08-0.248c-0.6,1.936-1.442,3.779-2.513,5.505l4.834,5.184c0.873,0.936,1.329,2.156,1.284,3.435
				c-0.045,1.279-0.585,2.464-1.522,3.337l-2.253,2.102c-1.862,1.734-5.04,1.619-6.772-0.237l-4.833-5.184
				c-1.796,0.947-3.694,1.657-5.666,2.12l-0.248,7.081C234.221,468.751,232.119,470.782,229.526,470.782z M216.238,452.752
				c0.294,0,0.589,0.087,0.845,0.264c2.052,1.418,4.312,2.45,6.716,3.064c0.677,0.173,1.141,0.794,1.117,1.493l-0.289,8.245
				c-0.036,1.001,0.751,1.845,1.753,1.88l3.081,0.108l0.065,1.488v-1.487c0.983,0,1.78-0.77,1.814-1.754l0.289-8.246
				c0.025-0.698,0.532-1.285,1.219-1.411c2.444-0.446,4.77-1.316,6.914-2.587c0.601-0.354,1.369-0.246,1.845,0.266l5.628,6.037
				c0.661,0.709,1.856,0.752,2.569,0.089l2.253-2.102c0.356-0.331,0.561-0.78,0.578-1.265c0.017-0.485-0.156-0.947-0.487-1.302
				l-5.629-6.037c-0.476-0.511-0.533-1.285-0.135-1.86c1.418-2.05,2.449-4.31,3.064-6.716c0.173-0.677,0.77-1.164,1.493-1.117
				l8.245,0.289c0.001,0,0.001,0,0.001,0c1.048,0,1.844-0.77,1.878-1.753l0.108-3.08c0.036-1.001-0.751-1.845-1.753-1.88
				l-8.246-0.289c-0.698-0.025-1.285-0.532-1.411-1.219c-0.446-2.443-1.316-4.769-2.587-6.914c-0.356-0.601-0.245-1.369,0.266-1.845
				l6.038-5.628c0.732-0.683,0.772-1.836,0.089-2.569l-2.102-2.254c-0.663-0.712-1.858-0.753-2.569-0.09l-6.036,5.628
				c-0.512,0.476-1.284,0.532-1.86,0.136c-2.05-1.418-4.309-2.449-6.715-3.065c-0.677-0.173-1.141-0.794-1.117-1.493l0.289-8.245
				c0.017-0.485-0.156-0.947-0.487-1.303c-0.33-0.355-0.781-0.56-1.265-0.576l-3.081-0.108c-0.001,0-0.001,0-0.002,0
				c-1.048,0-1.843,0.77-1.878,1.753l-0.289,8.245c-0.025,0.698-0.532,1.285-1.219,1.411c-2.443,0.446-4.769,1.316-6.914,2.587
				c-0.603,0.357-1.368,0.245-1.846-0.265l-5.628-6.037c-0.663-0.711-1.858-0.753-2.569-0.091l-2.254,2.102
				c-0.356,0.331-0.561,0.78-0.578,1.265c-0.017,0.486,0.156,0.948,0.487,1.304l5.629,6.036c0.476,0.511,0.533,1.285,0.136,1.859
				c-1.418,2.052-2.449,4.311-3.065,6.716c-0.174,0.677-0.779,1.143-1.493,1.117l-8.245-0.289c-0.001,0-0.001,0-0.001,0
				c-1.048,0-1.844,0.77-1.878,1.753l-0.108,3.08c-0.017,0.485,0.156,0.947,0.487,1.302c0.331,0.356,0.78,0.56,1.266,0.577
				l8.245,0.289c0.698,0.025,1.285,0.532,1.411,1.219c0.446,2.444,1.316,4.77,2.587,6.914c0.356,0.601,0.245,1.369-0.265,1.846
				l-6.037,5.628c-0.733,0.683-0.774,1.836-0.091,2.569l2.102,2.254c0.348,0.373,0.82,0.579,1.33,0.579c0.001,0,0.001,0,0.001,0
				c0.461,0,0.9-0.173,1.238-0.488l6.036-5.629C215.507,452.887,215.871,452.752,216.238,452.752z M229.053,452.034
				c-0.193,0-0.387-0.004-0.582-0.01c-4.366-0.153-8.411-1.997-11.391-5.193c-2.979-3.196-4.536-7.361-4.383-11.728
				c0.317-9.044,7.765-16.076,16.92-15.774c9.013,0.316,16.09,7.906,15.774,16.92C245.081,445.1,237.904,452.034,229.053,452.034z
				 M229.035,422.292c-7.241,0-13.112,5.673-13.366,12.915c-0.126,3.573,1.148,6.98,3.586,9.596c2.437,2.614,5.748,4.124,9.32,4.248
				c7.444,0.283,13.585-5.505,13.844-12.907c0.258-7.375-5.531-13.585-12.907-13.843
				C229.353,422.295,229.194,422.292,229.035,422.292z"/>
		</g>
	</g>
	<g>
		<g>
			<g>
				<path style="fill:#CAD6D6;" d="M260.123,463.65l4.314-0.187c0.362,1.366,0.961,2.63,1.749,3.75l-2.919,3.184
					c-0.646,0.704-0.598,1.798,0.106,2.444l1.189,1.09c0.704,0.645,1.798,0.598,2.444-0.106l2.919-3.184l0,0
					c1.184,0.688,2.496,1.176,3.888,1.418l0.187,4.314c0.041,0.954,0.849,1.694,1.803,1.653l1.612-0.07
					c0.954-0.041,1.694-0.848,1.653-1.803l-0.187-4.314c1.366-0.362,2.63-0.961,3.75-1.749l0,0l3.184,2.919
					c0.704,0.645,1.798,0.598,2.444-0.106l1.09-1.189c0.646-0.704,0.598-1.798-0.106-2.444l-3.184-2.919
					c0.688-1.184,1.176-2.495,1.418-3.888l4.315-0.187c0.954-0.041,1.694-0.849,1.653-1.803l-0.07-1.612
					c-0.041-0.954-0.849-1.694-1.803-1.653l-4.314,0.187c-0.362-1.366-0.961-2.63-1.749-3.75l2.919-3.184
					c0.646-0.704,0.598-1.798-0.106-2.444l-1.189-1.09c-0.704-0.645-1.798-0.598-2.444,0.106l-2.919,3.184
					c-1.184-0.688-2.495-1.176-3.888-1.418l-0.187-4.314c-0.041-0.954-0.849-1.694-1.803-1.653l-1.612,0.07
					c-0.954,0.041-1.694,0.849-1.653,1.803l0.187,4.314c-1.366,0.362-2.63,0.961-3.75,1.749l-3.184-2.92
					c-0.704-0.645-1.798-0.598-2.444,0.106l-1.09,1.189c-0.646,0.704-0.598,1.798,0.106,2.444l3.184,2.919
					c-0.688,1.184-1.176,2.495-1.418,3.888l-4.314,0.187c-0.954,0.041-1.694,0.849-1.653,1.803l0.07,1.612
					C258.361,462.951,259.168,463.691,260.123,463.65z M275.509,452.653c4.295-0.186,7.927,3.144,8.113,7.439
					c0.186,4.295-3.144,7.927-7.439,8.113c-4.295,0.186-7.927-3.144-8.113-7.439C267.884,456.472,271.215,452.84,275.509,452.653z"
					/>
			</g>
		</g>
		<g>
			<path style="fill:#43484E;" d="M275.726,479.514c-1.726,0-3.137-1.351-3.212-3.076l-0.138-3.176
				c-0.73-0.197-1.44-0.456-2.126-0.775l-2.148,2.344c-1.151,1.258-3.285,1.352-4.545,0.198l-1.189-1.091
				c-0.633-0.58-1.003-1.372-1.04-2.231c-0.037-0.858,0.262-1.68,0.843-2.313l2.148-2.344c-0.378-0.656-0.697-1.341-0.957-2.051
				l-3.176,0.138c-0.002,0-0.004,0-0.007,0c-1.864,0-3.271-1.35-3.346-3.074l-0.07-1.612c-0.037-0.858,0.262-1.679,0.843-2.312
				c0.58-0.633,1.373-1.003,2.231-1.04l3.175-0.138c0.197-0.73,0.456-1.44,0.775-2.126l-2.344-2.148
				c-1.307-1.199-1.395-3.238-0.198-4.545l1.091-1.189c1.151-1.257,3.286-1.35,4.544-0.198l2.343,2.149
				c0.656-0.378,1.342-0.698,2.051-0.957l-0.137-3.176c-0.077-1.771,1.302-3.275,3.073-3.352l1.612-0.07c0.001,0,0.004,0,0.006,0
				c1.864,0,3.272,1.35,3.347,3.073l0.137,3.176c0.73,0.197,1.44,0.456,2.126,0.775l2.15-2.344c1.152-1.257,3.285-1.351,4.544-0.197
				l1.188,1.09c0.633,0.58,1.003,1.372,1.04,2.231c0.037,0.858-0.262,1.68-0.844,2.314l-2.148,2.343
				c0.378,0.656,0.698,1.341,0.957,2.051l3.176-0.138c0.002,0,0.004,0,0.007,0c1.864,0,3.271,1.35,3.346,3.074l0.07,1.612
				c0.077,1.772-1.302,3.276-3.074,3.353l-3.176,0.138c-0.197,0.73-0.456,1.44-0.775,2.126l2.343,2.148
				c1.307,1.199,1.395,3.238,0.198,4.545l-1.09,1.189c-1.155,1.257-3.288,1.35-4.546,0.197l-2.343-2.148
				c-0.657,0.378-1.342,0.698-2.052,0.957l0.138,3.176c0.037,0.858-0.262,1.68-0.842,2.313c-0.581,0.633-1.374,1.003-2.232,1.04
				l-1.612,0.07C275.845,479.512,275.748,479.514,275.726,479.514z M269.925,469.154c0.256,0,0.513,0.066,0.746,0.201
				c1.055,0.613,2.198,1.03,3.395,1.238c0.688,0.12,1.2,0.703,1.23,1.401l0.187,4.315c0.006,0.13,0.112,0.232,0.241,0.232v1.487
				l0.012-1.487l1.612-0.07c0.114-0.005,0.237-0.139,0.232-0.253l-0.187-4.315c-0.03-0.698,0.43-1.324,1.105-1.502
				c1.173-0.311,2.275-0.825,3.276-1.527c0.57-0.401,1.345-0.351,1.86,0.12l3.184,2.919c0.084,0.077,0.206,0.135,0.343-0.015
				l1.089-1.188c0.091-0.099,0.084-0.253-0.015-0.343l-3.184-2.919c-0.515-0.473-0.632-1.239-0.281-1.843
				c0.613-1.055,1.03-2.198,1.239-3.396c0.12-0.688,0.703-1.2,1.4-1.231l4.315-0.187c0.134-0.006,0.238-0.119,0.232-0.253
				l-0.07-1.612c-0.006-0.129-0.114-0.232-0.241-0.232l-4.326,0.187c-0.692,0.022-1.323-0.428-1.502-1.105
				c-0.311-1.175-0.825-2.277-1.527-3.274c-0.403-0.571-0.353-1.345,0.119-1.861l2.919-3.184c0.078-0.085,0.07-0.266-0.014-0.343
				l-1.189-1.091c-0.082-0.075-0.205-0.133-0.342,0.015l-2.921,3.184c-0.473,0.515-1.239,0.63-1.843,0.281
				c-1.055-0.613-2.198-1.03-3.396-1.238c-0.688-0.12-1.201-0.703-1.231-1.401l-0.187-4.315c-0.006-0.129-0.112-0.231-0.242-0.231
				l-1.624,0.07c-0.133,0.006-0.237,0.119-0.231,0.253l0.186,4.315c0.031,0.698-0.43,1.323-1.105,1.501
				c-1.174,0.311-2.276,0.825-3.274,1.527c-0.572,0.402-1.345,0.351-1.861-0.12l-3.184-2.919c-0.082-0.076-0.206-0.134-0.343,0.015
				l-1.091,1.189c-0.09,0.099-0.083,0.253,0.016,0.343l3.184,2.918c0.515,0.473,0.632,1.239,0.281,1.843
				c-0.613,1.055-1.03,2.198-1.238,3.396c-0.12,0.688-0.703,1.2-1.401,1.231l-4.314,0.187c-0.115,0.005-0.237,0.139-0.232,0.253
				l0.07,1.612c0.006,0.128,0.114,0.232,0.241,0.232l4.326-0.187c0.677-0.028,1.323,0.428,1.502,1.104
				c0.311,1.176,0.825,2.278,1.527,3.275c0.402,0.571,0.352,1.346-0.12,1.861l-2.919,3.185c-0.078,0.084-0.07,0.265,0.014,0.342
				l1.189,1.091c0.083,0.076,0.208,0.135,0.343-0.015l2.919-3.184C269.118,469.32,269.52,469.154,269.925,469.154z M275.84,469.699
				c-4.975,0-9.04-3.896-9.255-8.868c-0.107-2.474,0.755-4.842,2.428-6.667c1.673-1.825,3.957-2.889,6.431-2.996
				c5.164-0.206,9.442,3.751,9.664,8.859c0.107,2.474-0.756,4.842-2.428,6.667c-1.674,1.825-3.958,2.889-6.432,2.996
				C276.112,469.696,275.975,469.699,275.84,469.699z M275.853,454.133l-0.279,0.006c-1.681,0.073-3.231,0.796-4.368,2.035
				c-1.137,1.24-1.722,2.848-1.65,4.528c0.146,3.378,2.906,6.024,6.284,6.024l0.279-0.006c1.681-0.073,3.232-0.796,4.368-2.035
				c1.137-1.24,1.723-2.848,1.65-4.528C281.991,456.779,279.23,454.133,275.853,454.133z"/>
		</g>
	</g>
	<g>
		<path style="fill:#43484E;" d="M1097.026,892.273H102.974c-1.642,0-2.974-1.332-2.974-2.974c0-1.642,1.331-2.974,2.974-2.974
			h994.053c1.642,0,2.974,1.332,2.974,2.974C1100,890.941,1098.668,892.273,1097.026,892.273z"/>
	</g>
	<g>
		<path style="fill:#43484E;" d="M847.665,911.108H376.418c-1.642,0-2.974-1.332-2.974-2.974c0-1.642,1.331-2.974,2.974-2.974
			h471.247c1.642,0,2.974,1.331,2.974,2.974C850.638,909.777,849.307,911.108,847.665,911.108z"/>
	</g>
	<g>
		<path style="fill:#43484E;" d="M312.141,930.034h-52.743c-1.642,0-2.974-1.331-2.974-2.974s1.331-2.974,2.974-2.974h52.743
			c1.642,0,2.974,1.331,2.974,2.974S313.783,930.034,312.141,930.034z"/>
	</g>
	<g>
		<path style="fill:#43484E;" d="M423.516,930.034h-21.774c-1.642,0-2.974-1.331-2.974-2.974s1.331-2.974,2.974-2.974h21.774
			c1.642,0,2.974,1.331,2.974,2.974S425.158,930.034,423.516,930.034z"/>
	</g>
	<g>
		<path style="fill:#43484E;" d="M561.329,930.034H456.475c-1.642,0-2.974-1.331-2.974-2.974s1.332-2.974,2.974-2.974h104.854
			c1.642,0,2.974,1.331,2.974,2.974S562.971,930.034,561.329,930.034z"/>
	</g>
	<g>
		<path style="fill:#43484E;" d="M730.644,930.034h-44.42c-1.642,0-2.974-1.331-2.974-2.974s1.331-2.974,2.974-2.974h44.42
			c1.642,0,2.974,1.331,2.974,2.974S732.287,930.034,730.644,930.034z"/>
	</g>
	<g>
		<path style="fill:#43484E;" d="M1009.418,392.505H601.082c-1.642,0-2.974-1.331-2.974-2.974v-39.765
			c0-1.642,1.332-2.974,2.974-2.974h318.122c0.215,0,0.43,0.023,0.64,0.07l90.214,19.875c1.363,0.301,2.334,1.508,2.334,2.904v19.89
			C1012.392,391.174,1011.061,392.505,1009.418,392.505z M604.055,386.558h402.389v-14.527L918.88,352.74H604.055V386.558z"/>
	</g>
	<g>
		<path style="fill:#43484E;" d="M919.203,392.505c-1.642,0-2.974-1.331-2.974-2.974v-78.785l-16.871-31.517l-16.947,31.52v39.017
			c0,1.642-1.332,2.974-2.974,2.974c-1.642,0-2.974-1.332-2.974-2.974v-39.765c0-0.492,0.122-0.975,0.354-1.408l19.927-37.062
			c0.518-0.964,1.525-1.565,2.619-1.565c0,0,0.002,0,0.003,0c1.096,0.001,2.102,0.604,2.619,1.57l19.839,37.062
			c0.231,0.432,0.352,0.914,0.352,1.403v79.53C922.177,391.174,920.846,392.505,919.203,392.505z"/>
	</g>
	<g>
		<path style="fill:#43484E;" d="M879.438,392.505c-1.642,0-2.974-1.331-2.974-2.974v-39.765c0-1.642,1.332-2.974,2.974-2.974
			c1.642,0,2.974,1.331,2.974,2.974v39.765C882.412,391.174,881.08,392.505,879.438,392.505z"/>
	</g>
	<g>
		<g>
			<path style="fill:#43484E;" d="M879.438,392.505h-39.765c-1.203,0-2.287-0.724-2.747-1.836c-0.46-1.111-0.206-2.39,0.645-3.24
				l19.883-19.883c1.115-1.115,3.09-1.115,4.205,0l19.882,19.883c0.851,0.85,1.105,2.129,0.645,3.24
				C881.725,391.781,880.641,392.505,879.438,392.505z M846.852,386.558h25.407l-12.703-12.704L846.852,386.558z"/>
		</g>
		<g>
			<path style="fill:#43484E;" d="M859.556,372.622c-0.761,0-1.522-0.29-2.103-0.871l-19.883-19.882
				c-0.851-0.85-1.105-2.129-0.645-3.24c0.46-1.112,1.544-1.836,2.747-1.836h39.765c1.203,0,2.287,0.725,2.747,1.836
				c0.46,1.111,0.206,2.39-0.645,3.24l-19.882,19.882C861.078,372.332,860.317,372.622,859.556,372.622z M846.852,352.74
				l12.704,12.703l12.703-12.703H846.852z"/>
		</g>
	</g>
	<g>
		<path style="fill:#43484E;" d="M839.673,392.505c-1.642,0-2.974-1.331-2.974-2.974v-39.765c0-1.642,1.332-2.974,2.974-2.974
			c1.642,0,2.974,1.331,2.974,2.974v39.765C842.647,391.174,841.315,392.505,839.673,392.505z"/>
	</g>
	<g>
		<g>
			<path style="fill:#43484E;" d="M839.673,392.505h-39.765c-1.203,0-2.287-0.724-2.747-1.836c-0.46-1.111-0.206-2.39,0.645-3.24
				l19.883-19.883c1.115-1.115,3.09-1.115,4.205,0l19.882,19.883c0.851,0.85,1.105,2.129,0.645,3.24
				C841.96,391.781,840.876,392.505,839.673,392.505z M807.087,386.558h25.407l-12.704-12.704L807.087,386.558z"/>
		</g>
		<g>
			<path style="fill:#43484E;" d="M819.791,372.622c-0.761,0-1.522-0.29-2.102-0.871l-19.883-19.882
				c-0.851-0.85-1.105-2.129-0.645-3.24c0.46-1.112,1.544-1.836,2.747-1.836h39.765c1.203,0,2.287,0.725,2.747,1.836
				c0.46,1.111,0.206,2.39-0.645,3.24l-19.882,19.882C821.313,372.332,820.552,372.622,819.791,372.622z M807.087,352.74
				l12.704,12.703l12.703-12.703H807.087z"/>
		</g>
	</g>
	<g>
		<path style="fill:#43484E;" d="M799.908,392.505c-1.642,0-2.974-1.331-2.974-2.974v-39.765c0-1.642,1.332-2.974,2.974-2.974
			c1.642,0,2.974,1.331,2.974,2.974v39.765C802.881,391.174,801.55,392.505,799.908,392.505z"/>
	</g>
	<g>
		<g>
			<path style="fill:#43484E;" d="M799.908,392.505h-39.765c-1.203,0-2.287-0.724-2.747-1.836c-0.46-1.111-0.206-2.39,0.645-3.24
				l19.882-19.883c1.115-1.115,3.09-1.115,4.205,0l19.883,19.883c0.851,0.85,1.105,2.129,0.645,3.24
				C802.195,391.781,801.111,392.505,799.908,392.505z M767.321,386.558h25.407l-12.704-12.704L767.321,386.558z"/>
		</g>
		<g>
			<path style="fill:#43484E;" d="M780.025,372.622c-0.761,0-1.522-0.29-2.102-0.871l-19.882-19.882
				c-0.851-0.85-1.105-2.129-0.645-3.24c0.46-1.112,1.544-1.836,2.747-1.836h39.765c1.203,0,2.287,0.725,2.747,1.836
				c0.46,1.111,0.206,2.39-0.645,3.24l-19.883,19.882C781.547,372.332,780.786,372.622,780.025,372.622z M767.322,352.74
				l12.703,12.703l12.704-12.703H767.322z"/>
		</g>
	</g>
	<g>
		<path style="fill:#43484E;" d="M760.143,392.505c-1.642,0-2.974-1.331-2.974-2.974v-39.765c0-1.642,1.332-2.974,2.974-2.974
			c1.642,0,2.974,1.331,2.974,2.974v39.765C763.116,391.174,761.785,392.505,760.143,392.505z"/>
	</g>
	<g>
		<g>
			<path style="fill:#43484E;" d="M760.143,392.505h-39.765c-1.203,0-2.287-0.724-2.747-1.836c-0.46-1.111-0.206-2.39,0.645-3.24
				l19.882-19.883c1.115-1.115,3.09-1.115,4.205,0l19.883,19.883c0.851,0.85,1.105,2.129,0.645,3.24
				C762.43,391.781,761.346,392.505,760.143,392.505z M727.556,386.558h25.407l-12.704-12.704L727.556,386.558z"/>
		</g>
		<g>
			<path style="fill:#43484E;" d="M740.26,372.622c-0.761,0-1.522-0.29-2.102-0.871l-19.882-19.882
				c-0.851-0.85-1.105-2.129-0.645-3.24c0.46-1.112,1.544-1.836,2.747-1.836h39.765c1.203,0,2.287,0.725,2.747,1.836
				c0.46,1.111,0.206,2.39-0.645,3.24l-19.883,19.882C741.782,372.332,741.021,372.622,740.26,372.622z M727.557,352.74
				l12.703,12.703l12.704-12.703H727.557z"/>
		</g>
	</g>
	<g>
		<path style="fill:#43484E;" d="M720.377,392.505c-1.642,0-2.974-1.331-2.974-2.974v-39.765c0-1.642,1.332-2.974,2.974-2.974
			c1.642,0,2.974,1.331,2.974,2.974v39.765C723.351,391.174,722.02,392.505,720.377,392.505z"/>
	</g>
	<g>
		<g>
			<path style="fill:#43484E;" d="M720.377,392.505h-39.765c-1.203,0-2.287-0.724-2.747-1.836c-0.46-1.111-0.206-2.39,0.645-3.24
				l19.882-19.883c1.115-1.115,3.09-1.115,4.205,0l19.883,19.883c0.851,0.85,1.105,2.129,0.645,3.24
				C722.664,391.781,721.58,392.505,720.377,392.505z M687.791,386.558h25.407l-12.704-12.704L687.791,386.558z"/>
		</g>
		<g>
			<path style="fill:#43484E;" d="M700.494,372.622c-0.761,0-1.522-0.29-2.102-0.871l-19.882-19.882
				c-0.851-0.85-1.105-2.129-0.645-3.24c0.46-1.112,1.544-1.836,2.747-1.836h39.765c1.203,0,2.287,0.725,2.747,1.836
				c0.46,1.111,0.206,2.39-0.645,3.24l-19.883,19.882C702.017,372.332,701.255,372.622,700.494,372.622z M687.792,352.74
				l12.703,12.703l12.704-12.703H687.792z"/>
		</g>
	</g>
	<g>
		<path style="fill:#43484E;" d="M680.612,392.505c-1.642,0-2.974-1.331-2.974-2.974v-39.765c0-1.642,1.331-2.974,2.974-2.974
			s2.974,1.331,2.974,2.974v39.765C683.586,391.174,682.254,392.505,680.612,392.505z"/>
	</g>
	<g>
		<g>
			<path style="fill:#43484E;" d="M680.612,392.505h-39.765c-1.203,0-2.287-0.724-2.747-1.836c-0.46-1.111-0.206-2.39,0.645-3.24
				l19.882-19.883c1.115-1.115,3.09-1.115,4.205,0l19.883,19.883c0.851,0.85,1.105,2.129,0.645,3.24
				C682.899,391.781,681.815,392.505,680.612,392.505z M648.026,386.558h25.407l-12.703-12.704L648.026,386.558z"/>
		</g>
		<g>
			<path style="fill:#43484E;" d="M660.729,372.622c-0.761,0-1.522-0.29-2.102-0.871l-19.882-19.882
				c-0.851-0.85-1.105-2.129-0.645-3.24c0.46-1.112,1.544-1.836,2.747-1.836h39.765c1.203,0,2.287,0.725,2.747,1.836
				c0.46,1.111,0.206,2.39-0.645,3.24l-19.883,19.882C662.252,372.332,661.49,372.622,660.729,372.622z M648.026,352.74
				l12.703,12.703l12.703-12.703H648.026z"/>
		</g>
	</g>
	<g>
		<path style="fill:#43484E;" d="M640.847,392.505c-1.642,0-2.974-1.331-2.974-2.974v-39.765c0-1.642,1.331-2.974,2.974-2.974
			c1.642,0,2.974,1.331,2.974,2.974v39.765C643.821,391.174,642.489,392.505,640.847,392.505z"/>
	</g>
	<g>
		<g>
			<path style="fill:#43484E;" d="M640.847,392.505h-39.765c-1.203,0-2.287-0.724-2.747-1.836c-0.46-1.111-0.206-2.39,0.645-3.24
				l19.882-19.883c1.115-1.115,3.09-1.115,4.205,0l19.883,19.883c0.851,0.85,1.105,2.129,0.645,3.24
				C643.134,391.781,642.05,392.505,640.847,392.505z M608.26,386.558h25.407l-12.703-12.704L608.26,386.558z"/>
		</g>
		<g>
			<path style="fill:#43484E;" d="M620.964,372.622c-0.761,0-1.522-0.29-2.102-0.871l-19.882-19.882
				c-0.851-0.85-1.105-2.129-0.645-3.24c0.46-1.112,1.544-1.836,2.747-1.836h39.765c1.203,0,2.287,0.725,2.747,1.836
				c0.46,1.111,0.206,2.39-0.645,3.24l-19.883,19.882C622.486,372.332,621.725,372.622,620.964,372.622z M608.261,352.74
				l12.703,12.703l12.703-12.703H608.261z"/>
		</g>
	</g>
	<g>
		<path style="fill:#43484E;" d="M601.082,392.505c-1.642,0-2.974-1.331-2.974-2.974v-39.765c0-1.642,1.332-2.974,2.974-2.974
			c1.642,0,2.974,1.331,2.974,2.974v39.765C604.055,391.174,602.724,392.505,601.082,392.505z"/>
	</g>
	<g>
		<path style="fill:#43484E;" d="M601.082,392.505h-88.994c-1.642,0-2.974-1.331-2.974-2.974v-27.401
			c0-1.484,1.094-2.741,2.564-2.945l88.998-12.379c0.853-0.118,1.713,0.138,2.362,0.703c0.648,0.565,1.021,1.383,1.021,2.243
			l-0.004,39.78C604.055,391.174,602.724,392.505,601.082,392.505z M515.062,386.558h83.046l0.004-33.39l-83.05,11.552V386.558z"/>
	</g>
	<g>
		<path style="fill:#43484E;" d="M1009.418,408.513h-52.04c-1.642,0-2.974-1.331-2.974-2.974v-15.364
			c0-1.642,1.331-2.974,2.974-2.974h52.04c1.642,0,2.974,1.332,2.974,2.974v15.364
			C1012.392,407.181,1011.061,408.513,1009.418,408.513z M960.352,402.565h46.092v-9.417h-46.092V402.565z"/>
	</g>
	<g>
		<g>
			<rect x="835.386" y="868.226" style="fill:#4BB7E8;" width="127.869" height="21.073"/>
		</g>
		<g>
			<path style="fill:#43484E;" d="M963.256,892.273H835.387c-1.642,0-2.974-1.332-2.974-2.974v-21.074
				c0-1.642,1.331-2.974,2.974-2.974h127.869c1.642,0,2.974,1.332,2.974,2.974v21.074
				C966.229,890.941,964.898,892.273,963.256,892.273z M838.36,886.325h121.922v-15.126H838.36V886.325z"/>
		</g>
	</g>
	<g>
		<path style="fill:#43484E;" d="M787.45,698.768c-0.38,0-0.761-0.145-1.051-0.436c-0.581-0.581-0.581-1.522,0-2.102l3.823-3.822
			l-3.697-3.697c-0.581-0.581-0.581-1.522,0-2.103s1.522-0.581,2.103,0l4.748,4.748c0.279,0.279,0.436,0.657,0.436,1.051
			c0,0.394-0.157,0.772-0.436,1.051l-4.874,4.874C788.211,698.623,787.831,698.768,787.45,698.768z"/>
	</g>
	<g>
		<path style="fill:#43484E;" d="M288.999,698.768c-0.38,0-0.761-0.145-1.051-0.436l-4.874-4.874c-0.581-0.581-0.581-1.522,0-2.102
			l4.747-4.748c0.581-0.581,1.522-0.581,2.103,0c0.581,0.58,0.581,1.522,0,2.103l-3.696,3.697l3.822,3.822
			c0.581,0.581,0.581,1.522,0,2.102C289.76,698.623,289.379,698.768,288.999,698.768z"/>
	</g>
	<g>
		<g>
			<g>
				<polygon style="fill:#EF5555;" points="193.785,880.477 155.355,880.477 167.236,828.5 181.904,828.5 				"/>
			</g>
			<g>
				<path style="fill:#43484E;" d="M193.814,883.451c-0.01,0-0.019,0-0.03,0h-38.429c-0.905,0-1.761-0.412-2.325-1.12
					c-0.564-0.708-0.775-1.633-0.574-2.516l11.88-51.977c0.309-1.352,1.512-2.311,2.899-2.311h14.669
					c1.387,0,2.59,0.959,2.899,2.311l11.788,51.574c0.127,0.331,0.197,0.69,0.197,1.066
					C196.788,882.119,195.457,883.451,193.814,883.451z M159.085,877.503h30.969l-10.52-46.03h-9.928L159.085,877.503z"/>
			</g>
		</g>
		<g>
			<g>
				<polygon style="fill:#FFFFFF;" points="159.784,861.098 189.355,861.098 185.702,845.115 163.438,845.115 				"/>
			</g>
			<g>
				<path style="fill:#43484E;" d="M189.355,864.072h-29.571c-0.905,0-1.761-0.412-2.325-1.12c-0.564-0.708-0.775-1.633-0.574-2.516
					l3.653-15.984c0.309-1.352,1.512-2.311,2.899-2.311h22.264c1.387,0,2.59,0.959,2.899,2.311l3.653,15.984
					c0.202,0.883-0.009,1.809-0.574,2.516C191.117,863.66,190.261,864.072,189.355,864.072z M163.515,858.125h22.11l-2.293-10.036
					h-17.523L163.515,858.125z"/>
			</g>
		</g>
		<g>
			<rect x="149.479" y="880.477" style="fill:#EF5555;" width="50.181" height="8.822"/>
			<path style="fill:#43484E;" d="M199.66,892.273h-50.181c-1.642,0-2.974-1.332-2.974-2.974v-8.822
				c0-1.642,1.331-2.974,2.974-2.974h50.181c1.642,0,2.974,1.331,2.974,2.974v8.822C202.634,890.941,201.302,892.273,199.66,892.273
				z M152.453,886.325h44.234v-2.875h-44.234V886.325z"/>
		</g>
	</g>
	<g>
		<g>
			<g>
				<polygon style="fill:#EF5555;" points="750.774,880.943 763.198,844.577 808.544,872.622 803.802,886.503 				"/>
			</g>
			<g>
				<path style="fill:#43484E;" d="M803.803,889.477c-0.103,0-0.207-0.005-0.312-0.016l-53.027-5.56
					c-0.9-0.094-1.708-0.594-2.196-1.357c-0.487-0.762-0.6-1.705-0.308-2.562l12.423-36.366c0.293-0.857,0.959-1.533,1.811-1.838
					c0.853-0.306,1.798-0.205,2.566,0.27l45.346,28.045c1.18,0.73,1.699,2.178,1.25,3.491l-4.742,13.882
					C806.201,888.678,805.062,889.477,803.803,889.477z M754.794,878.374l46.96,4.924l3.209-9.395l-40.157-24.836L754.794,878.374z"
					/>
			</g>
		</g>
		<g>
			<g>
				<polygon style="fill:#FFFFFF;" points="780.104,855.033 770.544,883.016 786.851,884.726 794.048,863.657 				"/>
			</g>
			<g>
				<path style="fill:#43484E;" d="M786.852,887.7c-0.103,0-0.207-0.005-0.311-0.016l-16.307-1.71
					c-0.9-0.094-1.708-0.594-2.196-1.357c-0.487-0.762-0.6-1.705-0.308-2.562l9.56-27.983c0.293-0.857,0.959-1.533,1.811-1.838
					c0.854-0.306,1.797-0.206,2.566,0.27l13.944,8.624c1.18,0.73,1.699,2.178,1.25,3.491l-7.198,21.069
					C789.25,886.9,788.112,887.7,786.852,887.7z M774.564,880.447l10.24,1.074l5.664-16.583l-8.755-5.415L774.564,880.447z"/>
			</g>
		</g>
		<g>
			
				<rect x="727.721" y="856.923" transform="matrix(-0.3233 0.9463 -0.9463 -0.3233 1811.2589 427.3856)" style="fill:#EF5555;" width="50.181" height="8.822"/>
			<path style="fill:#43484E;" d="M748.875,889.478c-0.319,0-0.643-0.052-0.961-0.16l-8.348-2.852
				c-0.746-0.255-1.361-0.796-1.708-1.504c-0.348-0.709-0.399-1.525-0.144-2.272l16.222-47.487c0.531-1.554,2.217-2.386,3.775-1.853
				l8.348,2.852c0.746,0.255,1.361,0.796,1.708,1.503c0.348,0.709,0.399,1.525,0.145,2.272l-16.222,47.487
				C751.267,888.7,750.112,889.478,748.875,889.478z M744.302,881.799l2.72,0.929l14.299-41.859l-2.72-0.929L744.302,881.799z"/>
		</g>
	</g>
	<g>
		<g>
			<g>
				<circle style="fill:#FCC20E;" cx="213.174" cy="618.986" r="26.34"/>
			</g>
			<g>
				<path style="fill:#43484E;" d="M213.174,647.556c-15.753,0-28.57-12.817-28.57-28.57c0-15.754,12.817-28.57,28.57-28.57
					s28.57,12.817,28.57,28.57C241.744,634.74,228.928,647.556,213.174,647.556z M213.174,594.876
					c-13.294,0-24.11,10.816-24.11,24.11c0,13.294,10.816,24.11,24.11,24.11c13.294,0,24.11-10.816,24.11-24.11
					C237.284,605.692,226.468,594.876,213.174,594.876z"/>
			</g>
		</g>
		<g>
			<g>
				<path style="fill:#43484E;" d="M209.539,629.885c-0.179,0-0.359-0.033-0.536-0.101c-0.766-0.296-1.147-1.156-0.851-1.922
					l7.27-18.822c0.296-0.767,1.159-1.148,1.923-0.851c0.766,0.296,1.147,1.157,0.851,1.922l-7.27,18.822
					C210.698,629.522,210.135,629.885,209.539,629.885z"/>
			</g>
			<g>
				<path style="fill:#43484E;" d="M219.347,625.588c-0.547,0-1.072-0.302-1.333-0.825c-0.365-0.735-0.066-1.628,0.669-1.994
					l7.605-3.784l-7.605-3.782c-0.735-0.366-1.035-1.258-0.669-1.994c0.365-0.735,1.256-1.035,1.994-0.669l10.229,5.089
					c0.505,0.252,0.825,0.767,0.825,1.331s-0.319,1.13-0.825,1.382l-10.229,5.09C219.795,625.537,219.569,625.588,219.347,625.588z"
					/>
			</g>
			<g>
				<path style="fill:#43484E;" d="M207,625.588c-0.222,0-0.448-0.05-0.661-0.155l-10.229-5.089
					c-0.505-0.252-0.825-0.767-0.825-1.332s0.319-1.13,0.824-1.381l10.229-5.091c0.738-0.369,1.628-0.067,1.994,0.668
					c0.366,0.735,0.067,1.628-0.668,1.994l-7.604,3.785l7.603,3.783c0.735,0.366,1.035,1.259,0.669,1.994
					C208.073,625.286,207.547,625.588,207,625.588z"/>
			</g>
		</g>
	</g>
	<g>
		<g>
			<g>
				<circle style="fill:#90D5F5;" cx="691.994" cy="855.033" r="26.34"/>
			</g>
			<g>
				<path style="fill:#43484E;" d="M691.994,883.603c-15.753,0-28.57-12.817-28.57-28.57c0-15.753,12.817-28.57,28.57-28.57
					c15.754,0,28.57,12.817,28.57,28.57C720.565,870.786,707.748,883.603,691.994,883.603z M691.994,830.923
					c-13.294,0-24.11,10.816-24.11,24.11s10.816,24.11,24.11,24.11c13.294,0,24.11-10.816,24.11-24.11
					S705.288,830.923,691.994,830.923z"/>
			</g>
		</g>
		<g>
			<path style="fill:#43484E;" d="M684.024,865.931c-0.179,0-0.359-0.033-0.536-0.101c-0.766-0.295-1.147-1.156-0.851-1.922
				l7.269-18.822c0.296-0.766,1.159-1.146,1.923-0.851c0.766,0.295,1.147,1.157,0.851,1.922l-7.269,18.822
				C685.183,865.569,684.62,865.931,684.024,865.931z"/>
		</g>
		<g>
			<path style="fill:#43484E;" d="M692.695,865.931c-0.179,0-0.359-0.033-0.536-0.101c-0.766-0.295-1.147-1.156-0.851-1.922
				l7.27-18.822c0.296-0.766,1.157-1.146,1.922-0.851c0.766,0.295,1.147,1.157,0.851,1.922l-7.269,18.822
				C693.854,865.569,693.291,865.931,692.695,865.931z"/>
		</g>
	</g>
	<g>
		<g>
			<path style="fill:#43484E;" d="M995.176,647.222c-0.571,0-1.141-0.218-1.577-0.653l-12.246-12.247
				c-0.871-0.871-0.871-2.283,0-3.154c0.871-0.871,2.282-0.871,3.154,0l12.246,12.247c0.871,0.871,0.871,2.283,0,3.154
				C996.317,647.005,995.746,647.222,995.176,647.222z"/>
		</g>
		<g>
			<path style="fill:#43484E;" d="M982.93,647.222c-0.571,0-1.141-0.218-1.577-0.653c-0.871-0.87-0.871-2.283,0-3.154l12.246-12.247
				c0.871-0.871,2.283-0.871,3.154,0c0.871,0.871,0.871,2.283,0,3.154l-12.246,12.247C984.071,647.005,983.5,647.222,982.93,647.222
				z"/>
		</g>
	</g>
	<g>
		<g>
			<path style="fill:#43484E;" d="M180.693,738.677c-0.571,0-1.141-0.218-1.577-0.653l-12.247-12.247
				c-0.871-0.87-0.871-2.283,0-3.154c0.871-0.871,2.283-0.871,3.154,0l12.247,12.247c0.871,0.87,0.871,2.283,0,3.154
				C181.835,738.459,181.264,738.677,180.693,738.677z"/>
		</g>
		<g>
			<path style="fill:#43484E;" d="M168.447,738.677c-0.571,0-1.141-0.218-1.577-0.653c-0.871-0.871-0.871-2.283,0-3.154
				l12.247-12.247c0.871-0.871,2.283-0.871,3.154,0c0.871,0.87,0.871,2.283,0,3.154l-12.247,12.247
				C169.588,738.459,169.017,738.677,168.447,738.677z"/>
		</g>
	</g>
	<g>
		<g>
			<path style="fill:#43484E;" d="M579.677,861.46c-0.571,0-1.141-0.218-1.577-0.653l-12.247-12.246
				c-0.871-0.87-0.871-2.283,0-3.154c0.871-0.871,2.283-0.871,3.154,0l12.247,12.246c0.871,0.87,0.871,2.283,0,3.154
				C580.818,861.242,580.248,861.46,579.677,861.46z"/>
		</g>
		<g>
			<path style="fill:#43484E;" d="M567.43,861.46c-0.571,0-1.141-0.218-1.577-0.653c-0.871-0.871-0.871-2.283,0-3.154l12.247-12.246
				c0.871-0.871,2.282-0.871,3.154,0c0.871,0.871,0.871,2.283,0,3.154l-12.247,12.246C568.571,861.242,568.001,861.46,567.43,861.46
				z"/>
		</g>
	</g>
	<g>
		<g>
			<path style="fill:#43484E;" d="M407.921,453.721c-1.232,0-2.23-0.998-2.23-2.23v-17.319c0-1.232,0.998-2.23,2.23-2.23
				c1.232,0,2.23,0.998,2.23,2.23v17.319C410.152,452.723,409.153,453.721,407.921,453.721z"/>
		</g>
		<g>
			<path style="fill:#43484E;" d="M416.581,445.061h-17.319c-1.232,0-2.23-0.998-2.23-2.23c0-1.232,0.998-2.23,2.23-2.23h17.319
				c1.232,0,2.23,0.998,2.23,2.23C418.811,444.063,417.813,445.061,416.581,445.061z"/>
		</g>
	</g>
	<g>
		<g>
			<path style="fill:#43484E;" d="M1044.097,856.511c-1.232,0-2.23-0.998-2.23-2.23v-17.319c0-1.232,0.998-2.23,2.23-2.23
				s2.23,0.998,2.23,2.23v17.319C1046.328,855.513,1045.329,856.511,1044.097,856.511z"/>
		</g>
		<g>
			<path style="fill:#43484E;" d="M1052.757,847.852h-17.319c-1.232,0-2.23-0.998-2.23-2.23s0.998-2.23,2.23-2.23h17.319
				c1.232,0,2.23,0.998,2.23,2.23S1053.989,847.852,1052.757,847.852z"/>
		</g>
	</g>
	<g>
		<path style="fill:#43484E;" d="M801.51,537.896c-0.131,0-0.264-0.009-0.398-0.026l-262.813-35.179L275.487,537.87
			c-1.626,0.213-3.123-0.926-3.342-2.553c-0.218-1.628,0.925-3.124,2.553-3.342l263.207-35.232c0.261-0.035,0.527-0.035,0.788,0
			l263.207,35.232c1.628,0.218,2.771,1.714,2.553,3.342C804.254,536.811,802.977,537.896,801.51,537.896z"/>
	</g>
	<g>
		<path style="fill:#43484E;" d="M538.299,444.66c-1.642,0-2.974-1.332-2.974-2.974v-52.155c0-1.642,1.332-2.974,2.974-2.974
			c1.642,0,2.974,1.331,2.974,2.974v52.155C541.273,443.329,539.942,444.66,538.299,444.66z"/>
	</g>
	<g>
		<g>
			<rect x="531.383" y="441.687" style="fill:#4BB7E8;" width="13.63" height="31.28"/>
		</g>
		<g>
			<path style="fill:#43484E;" d="M545.012,475.941h-13.629c-1.642,0-2.974-1.332-2.974-2.974v-31.28
				c0-1.642,1.331-2.974,2.974-2.974h13.629c1.642,0,2.974,1.332,2.974,2.974v31.28
				C547.986,474.609,546.654,475.941,545.012,475.941z M534.357,469.993h7.682V444.66h-7.682V469.993z"/>
		</g>
	</g>
	<g>
		<path style="fill:#43484E;" d="M538.662,512.369c-9.121,0-16.541-7.42-16.541-16.541c0-8.106,5.861-14.868,13.568-16.273v-6.587
			c0-1.642,1.331-2.974,2.974-2.974s2.974,1.332,2.974,2.974v9.293c0,1.642-1.331,2.974-2.974,2.974
			c-5.841,0-10.594,4.752-10.594,10.594s4.752,10.594,10.594,10.594c5.841,0,10.594-4.752,10.594-10.594
			c0-1.642,1.331-2.974,2.974-2.974s2.974,1.331,2.974,2.974C555.203,504.948,547.782,512.369,538.662,512.369z"/>
	</g>
	<g>
		<path style="fill:#43484E;" d="M969.347,480.258h-4.993c-1.232,0-2.23-0.998-2.23-2.23c0-1.232,0.998-2.23,2.23-2.23h4.993
			c1.232,0,2.23,0.998,2.23,2.23C971.578,479.26,970.58,480.258,969.347,480.258z"/>
	</g>
	<g>
		<path style="fill:#43484E;" d="M980.499,480.258h-4.993c-1.232,0-2.23-0.998-2.23-2.23c0-1.232,0.998-2.23,2.23-2.23h4.993
			c1.232,0,2.23,0.998,2.23,2.23C982.729,479.26,981.731,480.258,980.499,480.258z"/>
	</g>
	<g>
		<path style="fill:#43484E;" d="M1011.387,480.258h-24.729c-1.232,0-2.23-0.998-2.23-2.23c0-1.232,0.998-2.23,2.23-2.23h24.729
			c1.232,0,2.23,0.998,2.23,2.23C1013.617,479.26,1012.619,480.258,1011.387,480.258z"/>
	</g>
	<g>
		<path style="fill:#43484E;" d="M252.743,564.552h-4.993c-1.232,0-2.23-0.998-2.23-2.23s0.998-2.23,2.23-2.23h4.993
			c1.232,0,2.23,0.998,2.23,2.23S253.975,564.552,252.743,564.552z"/>
	</g>
	<g>
		<path style="fill:#43484E;" d="M241.592,564.552h-4.993c-1.232,0-2.23-0.998-2.23-2.23s0.998-2.23,2.23-2.23h4.993
			c1.232,0,2.23,0.998,2.23,2.23S242.824,564.552,241.592,564.552z"/>
	</g>
	<g>
		<path style="fill:#43484E;" d="M230.441,564.552h-24.73c-1.232,0-2.23-0.998-2.23-2.23s0.998-2.23,2.23-2.23h24.73
			c1.232,0,2.23,0.998,2.23,2.23S231.673,564.552,230.441,564.552z"/>
	</g>
	<g>
		<path style="fill:#43484E;" d="M1009.417,372.615c-0.697,0-1.397-0.244-1.962-0.74l-108.872-95.664l-296.756,76.42
			c-1.591,0.409-3.212-0.548-3.621-2.139c-0.41-1.59,0.548-3.211,2.139-3.621l298.279-76.812c0.95-0.245,1.965-0.003,2.704,0.646
			l110.054,96.702c1.234,1.084,1.355,2.963,0.271,4.197C1011.064,372.273,1010.243,372.615,1009.417,372.615z"/>
	</g>
	<g>
		<path style="fill:#43484E;" d="M313.329,846.157c-0.571,0-1.141-0.218-1.577-0.653l-7.677-7.677c-0.871-0.87-0.871-2.283,0-3.154
			c0.871-0.871,2.283-0.871,3.154,0l6.101,6.101l15.078-15.078c0.871-0.871,2.282-0.871,3.154,0c0.871,0.87,0.871,2.283,0,3.154
			l-16.655,16.655C314.471,845.939,313.9,846.157,313.329,846.157z"/>
	</g>
	<g>
		<path style="fill:#43484E;" d="M337.852,847.345h-7.868c-1.232,0-2.23-0.998-2.23-2.23c0-1.232,0.998-2.23,2.23-2.23h7.868
			c1.232,0,2.23,0.998,2.23,2.23C340.082,846.347,339.084,847.345,337.852,847.345z"/>
	</g>
	<g>
		<path style="fill:#43484E;" d="M378.213,847.345h-32.826c-1.232,0-2.23-0.998-2.23-2.23c0-1.232,0.998-2.23,2.23-2.23h32.826
			c1.232,0,2.23,0.998,2.23,2.23C380.443,846.347,379.445,847.345,378.213,847.345z"/>
	</g>
	<g>
		<path style="fill:#43484E;" d="M751.423,470.393c-0.571,0-1.141-0.218-1.577-0.653l-7.677-7.677c-0.871-0.87-0.871-2.283,0-3.154
			c0.871-0.871,2.283-0.871,3.154,0l6.101,6.101l15.078-15.078c0.871-0.871,2.282-0.871,3.154,0c0.871,0.871,0.871,2.283,0,3.154
			L753,469.739C752.564,470.175,751.993,470.393,751.423,470.393z"/>
	</g>
	<g>
		<path style="fill:#43484E;" d="M775.945,471.582h-7.868c-1.232,0-2.23-0.998-2.23-2.23c0-1.232,0.998-2.23,2.23-2.23h7.868
			c1.232,0,2.23,0.998,2.23,2.23C778.176,470.584,777.177,471.582,775.945,471.582z"/>
	</g>
	<g>
		<path style="fill:#43484E;" d="M816.305,471.582H783.48c-1.232,0-2.23-0.998-2.23-2.23c0-1.232,0.998-2.23,2.23-2.23h32.825
			c1.232,0,2.23,0.998,2.23,2.23C818.536,470.584,817.537,471.582,816.305,471.582z"/>
	</g>
	<g>
		<path style="fill:#43484E;" d="M635.226,849.214h-43.13c-1.232,0-2.23-0.998-2.23-2.23c0-1.232,0.998-2.23,2.23-2.23h43.13
			c1.232,0,2.23,0.998,2.23,2.23C637.456,848.216,636.458,849.214,635.226,849.214z"/>
	</g>
	<g>
		<path style="fill:#43484E;" d="M616.504,861.46h-24.409c-1.232,0-2.23-0.998-2.23-2.23c0-1.232,0.998-2.23,2.23-2.23h24.409
			c1.232,0,2.23,0.998,2.23,2.23C618.734,860.462,617.736,861.46,616.504,861.46z"/>
	</g>
	<g>
		<rect x="207.002" y="687.432" style="fill:#90D5F5;" width="17.459" height="17.459"/>
	</g>
	<g>
		<rect x="830.944" y="540.667" style="fill:#EF5555;" width="17.459" height="17.459"/>
	</g>
	<g>
		<circle style="fill:#4BB7E8;" cx="1006.531" cy="834.075" r="6.384"/>
	</g>
	<g>
		<circle style="fill:#CAD6D6;" cx="113.33" cy="558.126" r="6.384"/>
	</g>
	<g>
		<path style="fill:#D9E484;" d="M1025.682,589.162c0,3.526-2.858,6.384-6.384,6.384c-3.526,0-6.384-2.858-6.384-6.384
			c0-3.526,2.858-6.384,6.384-6.384C1022.824,582.778,1025.682,585.636,1025.682,589.162z"/>
	</g>
	<g>
		<path style="fill:#FCC20E;" d="M958.554,529.185c0,3.526-2.858,6.384-6.384,6.384c-3.526,0-6.384-2.858-6.384-6.384
			c0-3.526,2.858-6.384,6.384-6.384C955.696,522.801,958.554,525.659,958.554,529.185z"/>
	</g>
</g>
</svg>
